<?xml version="1.0" encoding="iso-8859-1"?>
<!-- Uploaded to: SVG Repo, www.svgrepo.com, Generator: SVG Repo Mixer Tools -->
<svg height="800px" width="800px" version="1.1" id="Layer_1" xmlns="http://www.w3.org/2000/svg" xmlns:xlink="http://www.w3.org/1999/xlink" 
	 viewBox="0 0 512.001 512.001" xml:space="preserve">
<path style="fill:#4FC0E8;" d="M0.001,256.006c0,141.395,114.606,255.998,255.996,255.994
	c141.398,0.004,256.004-114.598,256.004-255.994C512.009,114.61,397.395,0,255.996,0C114.606,0,0.001,114.614,0.001,256.006z"/>
<path style="fill:#3DAED9;" d="M512.001,256.005c0.001-14.165-1.2-28.045-3.411-41.584c0,0-0.014-0.01-0.021-0.015
	c-0.203-0.275-0.305-0.598-0.55-0.85c-0.275-0.282-0.63-0.409-0.937-0.637c-0.203-0.275-137.063-137.358-137.309-137.609
	c-2.88-2.946-7.605-2.996-10.559-0.116l-21.132,20.672c-2.945,2.88-2.996,7.613-0.116,10.558c0.274,0.279,0.628,0.402,0.931,0.629
	c0.205,0.278,0.307,0.604,0.556,0.858c0.274,0.279,44.347,44.341,44.595,44.595c0.099,0.101,0.235,0.134,0.338,0.228
	c3.39,9.11,5.844,18.555,7.373,28.244c-0.303-0.298-62.847-62.829-63.356-63.317c-23.058-22.875-55.155-37.131-90.654-37.131
	c-69.993,0-126.933,55.27-126.933,123.2c0,34.219,14.471,65.202,37.759,87.55c0.5,0.496,0.985,1.005,1.493,1.493
	c0.497,0.494,61.426,61.483,61.686,61.737c-10.685-1.759-21.172-4.721-31.351-8.671c-0.004-0.004-0.005-0.011-0.01-0.015
	c-0.275-0.282-42.863-42.857-43.108-43.108c-2.88-2.945-7.605-3.004-10.559-0.116l-21.131,20.679
	c-2.946,2.889-2.996,7.613-0.116,10.559c0.274,0.279,0.627,0.402,0.931,0.629c0.205,0.278,71.436,71.498,71.49,71.567
	c-12.014,4.964-23.47,11.458-34.148,19.454c-2.574,1.933-3.623,5.286-2.61,8.334c0.484,1.449,1.402,2.649,2.553,3.535
	c0.418,0.572,69.311,69.438,69.866,69.866c0.417,0.569,0.926,1.051,1.477,1.477c13.341,2.145,27.013,3.301,40.96,3.3
	C397.395,512.004,512.001,397.401,512.001,256.005z"/>
<g>
	<path style="fill:#F4F6F9;" d="M237.749,326.932c69.993,0,126.933-55.27,126.933-123.2s-56.941-123.2-126.933-123.2
		s-126.933,55.27-126.933,123.2S167.755,326.932,237.749,326.932z M237.749,95.466c61.76,0,112,48.57,112,108.267
		s-50.24,108.267-112,108.267s-112-48.57-112-108.267S175.988,95.466,237.749,95.466z"/>
	<path style="fill:#F4F6F9;" d="M260.149,369.98c35.913-4.686,70.66-20.35,98.255-47.343
		c32.404-31.705,50.246-73.799,50.246-118.533c0-42.121-16.035-81.691-44.995-112.366l5.999-5.869
		c2.946-2.88,2.997-7.613,0.116-10.558c-2.881-2.945-7.605-2.997-10.558-0.116L338.08,95.867c-2.946,2.88-2.996,7.613-0.116,10.558
		c1.466,1.494,3.398,2.245,5.338,2.245c1.882,0,3.77-0.707,5.221-2.129l4.466-4.369c26.215,27.87,40.727,63.755,40.727,101.939
		c0,40.681-16.245,78.983-45.756,107.851c-59.132,57.841-153.966,59.518-214.704,5.138l3.909-3.825
		c2.946-2.887,2.997-7.613,0.116-10.558c-2.881-2.945-7.605-3.004-10.558-0.116l-21.132,20.679
		c-2.946,2.887-2.997,7.613-0.116,10.558c1.466,1.494,3.398,2.245,5.338,2.245c1.882,0,3.77-0.707,5.221-2.129l6.533-6.394
		c26.542,24.046,59.054,38.209,92.779,42.501v24.07c0,0.577,0.205,1.087,0.329,1.626c-25.95,3.65-50.496,13.683-71.925,29.729
		c-2.574,1.933-3.623,5.286-2.61,8.334c1.021,3.055,3.872,5.111,7.088,5.111h178.784c3.216,0,6.067-2.057,7.088-5.111
		c1.013-3.047-0.036-6.402-2.61-8.334c-21.362-15.995-45.82-26.019-71.676-29.699c0.128-0.548,0.334-1.068,0.334-1.655
		L260.149,369.98L260.149,369.98z M230.282,394.132v-22.828c2.39,0.098,4.775,0.333,7.168,0.333c2.591,0,5.177-0.249,7.765-0.364
		v22.858c0,0.109,0.057,0.198,0.062,0.305c-2.547-0.123-5.086-0.305-7.652-0.305c-2.483,0-4.938,0.18-7.403,0.295
		C230.226,394.323,230.282,394.237,230.282,394.132z M300.843,423.999H174.398c19.549-9.822,41.023-14.933,63.226-14.933
		S281.294,414.177,300.843,423.999z"/>
</g>
</svg>