<?xml version="1.0" encoding="UTF-8"?>
<!DOCTYPE svg PUBLIC "-//W3C//DTD SVG 1.1//EN" "http://www.w3.org/Graphics/SVG/1.1/DTD/svg11.dtd">
<svg xmlns="http://www.w3.org/2000/svg" version="1.1" width="762px" height="327px" style="shape-rendering:geometricPrecision; text-rendering:geometricPrecision; image-rendering:optimizeQuality; fill-rule:evenodd; clip-rule:evenodd" xmlns:xlink="http://www.w3.org/1999/xlink">
<g><path style="opacity:0.878" fill="#a7dbf7" d="M 177.5,0.5 C 177.5,0.166667 177.5,-0.166667 177.5,-0.5C 207.167,-0.5 236.833,-0.5 266.5,-0.5C 266.5,0.166667 266.5,0.833333 266.5,1.5C 236.907,0.508421 207.24,0.175087 177.5,0.5 Z"/></g>
<g><path style="opacity:1" fill="#10a2e9" d="M 177.5,0.5 C 207.24,0.175087 236.907,0.508421 266.5,1.5C 281.327,25.8137 295.661,50.4803 309.5,75.5C 295.541,100.774 281.207,125.774 266.5,150.5C 236.456,150.818 206.456,150.484 176.5,149.5C 162.193,124.896 147.86,100.23 133.5,75.5C 147.941,50.2725 162.608,25.2725 177.5,0.5 Z"/></g>
<g><path style="opacity:0.346" fill="#f7bba0" d="M 130.5,79.5 C 101.498,79.3334 72.4981,79.5 43.5,80C 42.9558,80.7172 42.2891,81.2172 41.5,81.5C 41.4142,80.5041 41.7476,79.6708 42.5,79C 72.0029,78.1695 101.336,78.3362 130.5,79.5 Z"/></g>
<g><path style="opacity:1" fill="#e60a14" d="M 130.5,79.5 C 131.338,79.8417 131.672,80.5084 131.5,81.5C 131.427,83.0269 132.094,84.0269 133.5,84.5C 134.674,85.5137 135.34,86.847 135.5,88.5C 135.427,90.0269 136.094,91.0269 137.5,91.5C 138.674,92.5137 139.34,93.847 139.5,95.5C 139.427,97.0269 140.094,98.0269 141.5,98.5C 142.338,98.8417 142.672,99.5084 142.5,100.5C 142.427,102.027 143.094,103.027 144.5,103.5C 145.674,104.514 146.34,105.847 146.5,107.5C 146.427,109.027 147.094,110.027 148.5,110.5C 149.674,111.514 150.34,112.847 150.5,114.5C 150.427,116.027 151.094,117.027 152.5,117.5C 153.674,118.514 154.34,119.847 154.5,121.5C 154.427,123.027 155.094,124.027 156.5,124.5C 157.338,124.842 157.672,125.508 157.5,126.5C 157.427,128.027 158.094,129.027 159.5,129.5C 160.674,130.514 161.34,131.847 161.5,133.5C 161.427,135.027 162.094,136.027 163.5,136.5C 164.338,136.842 164.672,137.508 164.5,138.5C 164.427,140.027 165.094,141.027 166.5,141.5C 167.674,142.514 168.34,143.847 168.5,145.5C 168.427,147.027 169.094,148.027 170.5,148.5C 171.338,148.842 171.672,149.508 171.5,150.5C 172.038,152.117 172.371,153.784 172.5,155.5C 170.75,159.335 168.75,163.001 166.5,166.5C 165.094,166.973 164.427,167.973 164.5,169.5C 163.083,172.669 161.417,175.669 159.5,178.5C 158.094,178.973 157.427,179.973 157.5,181.5C 157.672,182.492 157.338,183.158 156.5,183.5C 155.662,183.842 155.328,184.508 155.5,185.5C 152.071,192.032 148.404,198.366 144.5,204.5C 143.094,204.973 142.427,205.973 142.5,207.5C 141.662,207.842 141.328,208.508 141.5,209.5C 140.89,211.434 139.89,213.101 138.5,214.5C 137.662,214.842 137.328,215.508 137.5,216.5C 136.737,218.368 135.737,220.035 134.5,221.5C 133.662,221.842 133.328,222.508 133.5,223.5C 133.167,224.167 132.833,224.833 132.5,225.5C 131.833,225.5 131.5,225.833 131.5,226.5C 102.058,228.48 72.3912,229.146 42.5,228.5C 40.9752,226.784 39.9752,224.784 39.5,222.5C 39.7148,220.821 39.0481,219.821 37.5,219.5C 36.6618,219.158 36.3284,218.492 36.5,217.5C 36.573,215.973 35.9063,214.973 34.5,214.5C 33.3995,213.395 32.7329,212.062 32.5,210.5C 32.573,208.973 31.9063,207.973 30.5,207.5C 29.3263,206.486 28.6596,205.153 28.5,203.5C 28.573,201.973 27.9063,200.973 26.5,200.5C 24.5832,197.669 22.9166,194.669 21.5,191.5C 21.573,189.973 20.9063,188.973 19.5,188.5C 18.6618,188.158 18.3284,187.492 18.5,186.5C 18.7148,184.821 18.0481,183.821 16.5,183.5C 14.2495,180.001 12.2495,176.335 10.5,172.5C 10.7148,170.821 10.0481,169.821 8.5,169.5C 7.66175,169.158 7.32842,168.492 7.5,167.5C 7.71481,165.821 7.04814,164.821 5.5,164.5C 4.32627,163.486 3.6596,162.153 3.5,160.5C 3.71481,158.821 3.04814,157.821 1.5,157.5C 0.833333,156.833 0.166667,156.167 -0.5,155.5C -0.5,154.5 -0.5,153.5 -0.5,152.5C -0.166667,152.5 0.166667,152.5 0.5,152.5C 1.90632,152.027 2.57298,151.027 2.5,149.5C 2.6596,147.847 3.32627,146.514 4.5,145.5C 5.90632,145.027 6.57298,144.027 6.5,142.5C 6.6596,140.847 7.32627,139.514 8.5,138.5C 9.90632,138.027 10.573,137.027 10.5,135.5C 10.3284,134.508 10.6618,133.842 11.5,133.5C 12.9063,133.027 13.573,132.027 13.5,130.5C 13.6596,128.847 14.3263,127.514 15.5,126.5C 16.9063,126.027 17.573,125.027 17.5,123.5C 17.6596,121.847 18.3263,120.514 19.5,119.5C 20.9063,119.027 21.573,118.027 21.5,116.5C 21.3284,115.508 21.6618,114.842 22.5,114.5C 23.9063,114.027 24.573,113.027 24.5,111.5C 24.6596,109.847 25.3263,108.514 26.5,107.5C 27.9063,107.027 28.573,106.027 28.5,104.5C 28.6596,102.847 29.3263,101.514 30.5,100.5C 31.9063,100.027 32.573,99.0269 32.5,97.5C 32.6596,95.847 33.3263,94.5137 34.5,93.5C 35.9063,93.0269 36.573,92.0269 36.5,90.5C 36.3284,89.5084 36.6618,88.8417 37.5,88.5C 38.9063,88.0269 39.573,87.0269 39.5,85.5C 39.6596,83.847 40.3263,82.5137 41.5,81.5C 42.2891,81.2172 42.9558,80.7172 43.5,80C 72.4981,79.5 101.498,79.3334 130.5,79.5 Z"/></g>
<g><path style="opacity:0.227" fill="#fccbb6" d="M 131.5,81.5 C 132.906,81.9731 133.573,82.9731 133.5,84.5C 132.094,84.0269 131.427,83.0269 131.5,81.5 Z"/></g>
<g><path style="opacity:0.282" fill="#fbc2aa" d="M 39.5,85.5 C 39.573,87.0269 38.9063,88.0269 37.5,88.5C 37.427,86.9731 38.0937,85.9731 39.5,85.5 Z"/></g>
<g><path style="opacity:0.316" fill="#bbb3d7" d="M 599.5,88.5 C 591.146,88.4272 582.812,88.7605 574.5,89.5C 579.423,88.046 584.589,87.3793 590,87.5C 593.352,87.5018 596.518,87.8351 599.5,88.5 Z"/></g>
<g><path style="opacity:0.007" fill="#fcfcfe" d="M 660.5,88.5 C 661.251,87.4265 662.251,87.2599 663.5,88C 662.552,88.4828 661.552,88.6495 660.5,88.5 Z"/></g>
<g><path style="opacity:0.004" fill="#fbfbfc" d="M 568.5,88.5 C 569.833,89.1667 569.833,89.1667 568.5,88.5 Z"/></g>
<g><path style="opacity:1" fill="#2a278b" d="M 599.5,88.5 C 602.059,88.1984 604.393,88.5318 606.5,89.5C 608.515,90.9238 610.848,91.5905 613.5,91.5C 616.485,92.3257 619.151,93.659 621.5,95.5C 622.845,97.8363 624.845,99.503 627.5,100.5C 627.427,102.027 628.094,103.027 629.5,103.5C 629.738,105.404 630.738,106.738 632.5,107.5C 633.931,108.78 634.598,110.447 634.5,112.5C 634.41,115.152 635.076,117.485 636.5,119.5C 636.802,122.059 636.468,124.393 635.5,126.5C 633.64,127.071 631.973,127.071 630.5,126.5C 623.549,127.066 616.882,126.399 610.5,124.5C 609.883,121.645 608.883,118.978 607.5,116.5C 607.5,114.5 606.5,113.5 604.5,113.5C 599.844,111.067 594.844,110.067 589.5,110.5C 583.527,109.773 578.194,111.107 573.5,114.5C 572.833,114.5 572.5,114.833 572.5,115.5C 571.833,115.833 571.167,116.167 570.5,116.5C 569.883,116.611 569.383,116.944 569,117.5C 568.179,120.554 568.345,123.554 569.5,126.5C 570.622,127.63 571.956,128.297 573.5,128.5C 575.75,129.13 577.75,130.13 579.5,131.5C 581.102,133.074 583.102,133.741 585.5,133.5C 587.438,135.163 589.772,135.829 592.5,135.5C 605.403,137.466 617.403,141.8 628.5,148.5C 629.551,149.222 630.218,150.222 630.5,151.5C 630.833,152.5 631.5,153.167 632.5,153.5C 633.167,153.833 633.833,154.167 634.5,154.5C 635.11,155.391 635.443,156.391 635.5,157.5C 635.427,159.027 636.094,160.027 637.5,160.5C 638.404,161.209 638.737,162.209 638.5,163.5C 638.41,166.152 639.076,168.485 640.5,170.5C 642.776,182.668 639.776,193.335 631.5,202.5C 629.973,202.427 628.973,203.094 628.5,204.5C 627.833,205.5 627.167,206.5 626.5,207.5C 618.3,212.801 609.3,215.467 599.5,215.5C 589.062,215.532 578.728,214.532 568.5,212.5C 565.759,212.293 563.426,211.293 561.5,209.5C 561.027,208.094 560.027,207.427 558.5,207.5C 558.158,206.662 557.492,206.328 556.5,206.5C 555.5,205.833 554.5,205.167 553.5,204.5C 552.167,202.5 550.5,200.833 548.5,199.5C 545.96,195.085 543.96,190.418 542.5,185.5C 542.59,182.848 541.924,180.515 540.5,178.5C 539.85,176.565 539.517,174.565 539.5,172.5C 544.805,171.806 550.138,171.472 555.5,171.5C 558.939,171.253 562.272,171.586 565.5,172.5C 566.807,176.081 568.141,179.747 569.5,183.5C 569.427,185.027 570.094,186.027 571.5,186.5C 572.552,186.351 573.552,186.517 574.5,187C 574.167,187.333 573.833,187.667 573.5,188C 576.099,189.795 578.766,191.295 581.5,192.5C 581.918,193.222 582.584,193.722 583.5,194C 588.02,194.814 592.354,194.647 596.5,193.5C 602.365,192.885 607.365,190.552 611.5,186.5C 612.906,186.027 613.573,185.027 613.5,183.5C 614.972,181.883 615.639,179.883 615.5,177.5C 615.333,176.167 615.167,174.833 615,173.5C 614.617,172.944 614.117,172.611 613.5,172.5C 610.943,169.208 607.609,166.874 603.5,165.5C 601.898,163.926 599.898,163.259 597.5,163.5C 597.167,163.5 596.833,163.5 596.5,163.5C 594.898,161.926 592.898,161.259 590.5,161.5C 589.833,161.5 589.167,161.5 588.5,161.5C 585.619,159.32 582.286,158.32 578.5,158.5C 574.303,157.768 570.303,156.434 566.5,154.5C 566.027,153.094 565.027,152.427 563.5,152.5C 562.508,152.672 561.842,152.338 561.5,151.5C 561.027,150.094 560.027,149.427 558.5,149.5C 558.027,148.094 557.027,147.427 555.5,147.5C 546.136,138.907 542.636,128.24 545,115.5C 545.705,112.524 546.871,109.858 548.5,107.5C 549.906,107.027 550.573,106.027 550.5,104.5C 551.906,104.027 552.573,103.027 552.5,101.5C 553.911,99.086 555.911,97.4194 558.5,96.5C 559.496,96.5858 560.329,96.2524 561,95.5C 561.423,96.9561 562.256,97.4561 563.5,97C 562.549,96.2825 562.383,95.4491 563,94.5C 564.878,93.9473 566.378,92.9473 567.5,91.5C 569.898,91.7406 571.898,91.0739 573.5,89.5C 573.833,89.5 574.167,89.5 574.5,89.5C 582.812,88.7605 591.146,88.4272 599.5,88.5 Z"/></g>
<g><path style="opacity:0.004" fill="#fafafc" d="M 355.5,89.5 C 356.833,90.1667 356.833,90.1667 355.5,89.5 Z"/></g>
<g><path style="opacity:0.012" fill="#faf9fc" d="M 567.5,90.5 C 566.761,90.631 566.094,90.4643 565.5,90C 566.437,89.3083 567.103,89.475 567.5,90.5 Z"/></g>
<g><path style="opacity:0.369" fill="#bbb2d7" d="M 606.5,89.5 C 609.152,89.4095 611.485,90.0762 613.5,91.5C 610.848,91.5905 608.515,90.9238 606.5,89.5 Z"/></g>
<g><path style="opacity:0.302" fill="#fbc3ab" d="M 135.5,88.5 C 136.906,88.9731 137.573,89.9731 137.5,91.5C 136.094,91.0269 135.427,90.0269 135.5,88.5 Z"/></g>
<g><path style="opacity:0.847" fill="#9589c0" d="M 573.5,89.5 C 571.898,91.0739 569.898,91.7406 567.5,91.5C 567.5,91.1667 567.5,90.8333 567.5,90.5C 569.5,90.1667 571.5,89.8333 573.5,89.5 Z"/></g>
<g><path style="opacity:0.004" fill="#f9f9fb" d="M 356.5,91.5 C 357.833,92.1667 357.833,92.1667 356.5,91.5 Z"/></g>
<g><path style="opacity:1" fill="#222389" d="M 488.5,90.5 C 496.72,89.8061 504.386,91.4728 511.5,95.5C 514.139,97.4728 516.473,99.8061 518.5,102.5C 518.738,104.404 519.738,105.738 521.5,106.5C 521.427,108.027 522.094,109.027 523.5,109.5C 523.5,109.833 523.5,110.167 523.5,110.5C 523.69,113.855 524.69,116.855 526.5,119.5C 526.635,126.862 526.302,134.196 525.5,141.5C 523.832,148.163 520.499,153.83 515.5,158.5C 513.77,159.026 512.436,160.026 511.5,161.5C 507.683,163.41 503.683,164.743 499.5,165.5C 494.63,165.69 489.964,166.356 485.5,167.5C 476.5,167.5 467.5,167.5 458.5,167.5C 457.504,182.658 457.17,197.991 457.5,213.5C 449.167,213.5 440.833,213.5 432.5,213.5C 432.5,172.5 432.5,131.5 432.5,90.5C 451.167,90.5 469.833,90.5 488.5,90.5 Z M 480.5,112.5 C 483.545,112.508 486.545,112.841 489.5,113.5C 490.391,114.11 491.391,114.443 492.5,114.5C 492.973,115.906 493.973,116.573 495.5,116.5C 498.69,120.577 500.357,125.244 500.5,130.5C 499.542,132.302 498.875,134.302 498.5,136.5C 497.662,136.842 497.328,137.508 497.5,138.5C 495.833,139.5 494.5,140.833 493.5,142.5C 491.302,142.875 489.302,143.542 487.5,144.5C 477.854,145.287 468.188,145.62 458.5,145.5C 458.5,134.5 458.5,123.5 458.5,112.5C 465.833,112.5 473.167,112.5 480.5,112.5 Z"/></g>
<g><path style="opacity:1" fill="#1f2188" d="M 661.5,90.5 C 691.833,90.5 722.167,90.5 752.5,90.5C 752.5,97.5 752.5,104.5 752.5,111.5C 730.5,111.5 708.5,111.5 686.5,111.5C 686.5,120.167 686.5,128.833 686.5,137.5C 706.66,138.497 726.993,138.83 747.5,138.5C 747.5,145.5 747.5,152.5 747.5,159.5C 727.167,159.5 706.833,159.5 686.5,159.5C 686.5,170.167 686.5,180.833 686.5,191.5C 708.994,192.497 731.661,192.831 754.5,192.5C 754.5,199.167 754.5,205.833 754.5,212.5C 723.5,212.5 692.5,212.5 661.5,212.5C 661.5,171.833 661.5,131.167 661.5,90.5 Z"/></g>
<g><path style="opacity:0.22" fill="#fcceba" d="M 36.5,90.5 C 36.573,92.0269 35.9063,93.0269 34.5,93.5C 34.427,91.9731 35.0937,90.9731 36.5,90.5 Z"/></g>
<g><path style="opacity:1" fill="#1e2188" d="M 329.5,91.5 C 337.5,91.5 345.5,91.5 353.5,91.5C 353.5,125.167 353.5,158.833 353.5,192.5C 373.833,192.5 394.167,192.5 414.5,192.5C 414.5,199.167 414.5,205.833 414.5,212.5C 386.167,212.5 357.833,212.5 329.5,212.5C 329.5,172.167 329.5,131.833 329.5,91.5 Z"/></g>
<g><path style="opacity:0.413" fill="#a99fcd" d="M 353.5,91.5 C 353.833,91.5 354.167,91.5 354.5,91.5C 354.5,124.833 354.5,158.167 354.5,191.5C 374.833,191.5 395.167,191.5 415.5,191.5C 415.5,191.833 415.5,192.167 415.5,192.5C 415.167,192.5 414.833,192.5 414.5,192.5C 394.167,192.5 373.833,192.5 353.5,192.5C 353.5,158.833 353.5,125.167 353.5,91.5 Z"/></g>
<g><path style="opacity:0.106" fill="#e2deef" d="M 488.5,90.5 C 469.833,90.5 451.167,90.5 432.5,90.5C 432.5,131.5 432.5,172.5 432.5,213.5C 431.501,172.337 431.168,131.003 431.5,89.5C 450.674,89.1697 469.674,89.503 488.5,90.5 Z"/></g>
<g><path style="opacity:0.008" fill="#f9f9fb" d="M 511.5,94.5 C 512.833,95.1667 512.833,95.1667 511.5,94.5 Z"/></g>
<g><path style="opacity:1" fill="#5d50a2" d="M 567.5,91.5 C 566.378,92.9473 564.878,93.9473 563,94.5C 562.383,95.4491 562.549,96.2825 563.5,97C 562.256,97.4561 561.423,96.9561 561,95.5C 560.329,96.2524 559.496,96.5858 558.5,96.5C 560.748,93.6066 563.748,91.9399 567.5,91.5 Z"/></g>
<g><path style="opacity:0.918" fill="#b1a6d1" d="M 621.5,95.5 C 624.155,96.497 626.155,98.1637 627.5,100.5C 624.845,99.503 622.845,97.8363 621.5,95.5 Z"/></g>
<g><path style="opacity:0.337" fill="#f9bca3" d="M 139.5,95.5 C 140.906,95.9731 141.573,96.9731 141.5,98.5C 140.094,98.0269 139.427,97.0269 139.5,95.5 Z"/></g>
<g><path style="opacity:0.004" fill="#f9f9fb" d="M 550.5,98.5 C 551.833,99.1667 551.833,99.1667 550.5,98.5 Z"/></g>
<g><path style="opacity:0.251" fill="#fbc9b3" d="M 32.5,97.5 C 32.573,99.0269 31.9063,100.027 30.5,100.5C 30.427,98.9731 31.0937,97.9731 32.5,97.5 Z"/></g>
<g><path style="opacity:0.525" fill="#bdb5d8" d="M 627.5,100.5 C 628.906,100.973 629.573,101.973 629.5,103.5C 628.094,103.027 627.427,102.027 627.5,100.5 Z"/></g>
<g><path style="opacity:0.235" fill="#fbcab4" d="M 142.5,100.5 C 143.906,100.973 144.573,101.973 144.5,103.5C 143.094,103.027 142.427,102.027 142.5,100.5 Z"/></g>
<g><path style="opacity:0.804" fill="#9c90c4" d="M 552.5,101.5 C 552.573,103.027 551.906,104.027 550.5,104.5C 550.427,102.973 551.094,101.973 552.5,101.5 Z"/></g>
<g><path style="opacity:0.843" fill="#9e92c6" d="M 518.5,102.5 C 519.5,103.167 520.5,103.833 521.5,104.5C 521.5,105.167 521.5,105.833 521.5,106.5C 519.738,105.738 518.738,104.404 518.5,102.5 Z"/></g>
<g><path style="opacity:0.004" fill="#fafafc" d="M 522.5,104.5 C 521.833,103.167 521.833,103.167 522.5,104.5 Z"/></g>
<g><path style="opacity:0.004" fill="#f9f9fb" d="M 522.5,104.5 C 523.833,105.167 523.833,105.167 522.5,104.5 Z"/></g>
<g><path style="opacity:0.651" fill="#9d92c6" d="M 629.5,103.5 C 631.262,104.262 632.262,105.596 632.5,107.5C 630.738,106.738 629.738,105.404 629.5,103.5 Z"/></g>
<g><path style="opacity:0.263" fill="#fcc5ae" d="M 28.5,104.5 C 28.573,106.027 27.9063,107.027 26.5,107.5C 26.427,105.973 27.0937,104.973 28.5,104.5 Z"/></g>
<g><path style="opacity:0.573" fill="#9d91c5" d="M 550.5,104.5 C 550.573,106.027 549.906,107.027 548.5,107.5C 548.427,105.973 549.094,104.973 550.5,104.5 Z"/></g>
<g><path style="opacity:0.263" fill="#c1b8db" d="M 521.5,106.5 C 522.906,106.973 523.573,107.973 523.5,109.5C 522.094,109.027 521.427,108.027 521.5,106.5 Z"/></g>
<g><path style="opacity:0.298" fill="#fbc3ab" d="M 146.5,107.5 C 147.906,107.973 148.573,108.973 148.5,110.5C 147.094,110.027 146.427,109.027 146.5,107.5 Z"/></g>
<g><path style="opacity:0.004" fill="#fafafc" d="M 524.5,109.5 C 525.833,110.167 525.833,110.167 524.5,109.5 Z"/></g>
<g><path style="opacity:0.714" fill="#887bb8" d="M 480.5,112.5 C 480.5,112.167 480.5,111.833 480.5,111.5C 483.877,111.068 486.877,111.735 489.5,113.5C 486.545,112.841 483.545,112.508 480.5,112.5 Z"/></g>
<g><path style="opacity:0.153" fill="#dcd9ec" d="M 687.5,137.5 C 687.167,137.5 686.833,137.5 686.5,137.5C 686.5,128.833 686.5,120.167 686.5,111.5C 708.5,111.5 730.5,111.5 752.5,111.5C 752.5,104.5 752.5,97.5 752.5,90.5C 722.167,90.5 691.833,90.5 661.5,90.5C 661.167,90.5 660.833,90.5 660.5,90.5C 690.123,89.4998 721.123,89.1665 753.5,89.5C 753.5,97.1667 753.5,104.833 753.5,112.5C 731.5,112.5 709.5,112.5 687.5,112.5C 687.5,120.833 687.5,129.167 687.5,137.5 Z"/></g>
<g><path style="opacity:0.322" fill="#fbbca3" d="M 24.5,111.5 C 24.573,113.027 23.9063,114.027 22.5,114.5C 22.427,112.973 23.0937,111.973 24.5,111.5 Z"/></g>
<g><path style="opacity:0.315" fill="#c4bddd" d="M 480.5,111.5 C 480.5,111.833 480.5,112.167 480.5,112.5C 473.167,112.5 465.833,112.5 458.5,112.5C 458.5,123.5 458.5,134.5 458.5,145.5C 458.167,145.5 457.833,145.5 457.5,145.5C 457.5,134.167 457.5,122.833 457.5,111.5C 465.167,111.5 472.833,111.5 480.5,111.5 Z"/></g>
<g><path style="opacity:0.694" fill="#aca1cd" d="M 604.5,113.5 C 606.5,113.5 607.5,114.5 607.5,116.5C 606.167,115.833 605.167,114.833 604.5,113.5 Z"/></g>
<g><path style="opacity:0.012" fill="#f9f9fb" d="M 573.5,114.5 C 574.833,115.167 574.833,115.167 573.5,114.5 Z"/></g>
<g><path style="opacity:0.008" fill="#f9f9fb" d="M 602.5,114.5 C 603.833,115.167 603.833,115.167 602.5,114.5 Z"/></g>
<g><path style="opacity:0.537" fill="#a499c9" d="M 492.5,114.5 C 494.027,114.427 495.027,115.094 495.5,116.5C 493.973,116.573 492.973,115.906 492.5,114.5 Z"/></g>
<g><path style="opacity:0.839" fill="#8376b6" d="M 523.5,110.5 C 523.833,110.5 524.167,110.5 524.5,110.5C 525.578,113.402 526.244,116.402 526.5,119.5C 524.69,116.855 523.69,113.855 523.5,110.5 Z"/></g>
<g><path style="opacity:0.004" fill="#fafafc" d="M 572.5,115.5 C 572.833,115.5 573.167,115.5 573.5,115.5C 573.315,116.17 572.981,116.17 572.5,115.5 Z"/></g>
<g><path style="opacity:0.322" fill="#fbbfa6" d="M 150.5,114.5 C 151.906,114.973 152.573,115.973 152.5,117.5C 151.094,117.027 150.427,116.027 150.5,114.5 Z"/></g>
<g><path style="opacity:0.004" fill="#fbfcfd" d="M 637.5,117.5 C 638.833,118.167 638.833,118.167 637.5,117.5 Z"/></g>
<g><path style="opacity:0.251" fill="#fbc9b3" d="M 21.5,116.5 C 21.573,118.027 20.9063,119.027 19.5,119.5C 19.427,117.973 20.0937,116.973 21.5,116.5 Z"/></g>
<g><path style="opacity:0.004" fill="#fafafc" d="M 527.5,118.5 C 528.833,119.167 528.833,119.167 527.5,118.5 Z"/></g>
<g><path style="opacity:0.757" fill="#8b7ebb" d="M 634.5,112.5 C 636.163,114.438 636.829,116.772 636.5,119.5C 635.076,117.485 634.41,115.152 634.5,112.5 Z"/></g>
<g><path style="opacity:0.004" fill="#fafafc" d="M 607.5,121.5 C 608.833,122.167 608.833,122.167 607.5,121.5 Z"/></g>
<g><path style="opacity:0.376" fill="#cac3e0" d="M 636.5,119.5 C 637.8,122.024 637.8,124.691 636.5,127.5C 635.893,127.376 635.56,127.043 635.5,126.5C 636.468,124.393 636.802,122.059 636.5,119.5 Z"/></g>
<g><path style="opacity:0.38" fill="#f9b59a" d="M 154.5,121.5 C 155.906,121.973 156.573,122.973 156.5,124.5C 155.094,124.027 154.427,123.027 154.5,121.5 Z"/></g>
<g><path style="opacity:0.004" fill="#fbfafd" d="M 571.5,125.5 C 571.369,124.761 571.536,124.094 572,123.5C 572.692,124.437 572.525,125.103 571.5,125.5 Z"/></g>
<g><path style="opacity:0.008" fill="#f9f9fb" d="M 608.5,123.5 C 609.833,124.167 609.833,124.167 608.5,123.5 Z"/></g>
<g><path style="opacity:1" fill="#6e60aa" d="M 570.5,116.5 C 568.904,119.819 569.238,122.819 571.5,125.5C 572.167,126.5 572.833,127.5 573.5,128.5C 571.956,128.297 570.622,127.63 569.5,126.5C 568.345,123.554 568.179,120.554 569,117.5C 569.383,116.944 569.883,116.611 570.5,116.5 Z"/></g>
<g><path style="opacity:0.271" fill="#fbc4ad" d="M 17.5,123.5 C 17.573,125.027 16.9063,126.027 15.5,126.5C 15.427,124.973 16.0937,123.973 17.5,123.5 Z"/></g>
<g><path style="opacity:0.612" fill="#b9b0d6" d="M 610.5,124.5 C 616.882,126.399 623.549,127.066 630.5,126.5C 624.021,127.491 617.354,127.824 610.5,127.5C 610.5,126.5 610.5,125.5 610.5,124.5 Z"/></g>
<g><path style="opacity:0.275" fill="#fbc5ae" d="M 157.5,126.5 C 158.906,126.973 159.573,127.973 159.5,129.5C 158.094,129.027 157.427,128.027 157.5,126.5 Z"/></g>
<g><path style="opacity:0.31" fill="#fabda4" d="M 13.5,130.5 C 13.573,132.027 12.9063,133.027 11.5,133.5C 11.427,131.973 12.0937,130.973 13.5,130.5 Z"/></g>
<g><path style="opacity:0.522" fill="#b5abd3" d="M 579.5,131.5 C 581.786,131.595 583.786,132.262 585.5,133.5C 583.102,133.741 581.102,133.074 579.5,131.5 Z"/></g>
<g><path style="opacity:0.78" fill="#aca1ce" d="M 500.5,130.5 C 500.946,133.01 500.28,135.01 498.5,136.5C 498.875,134.302 499.542,132.302 500.5,130.5 Z"/></g>
<g><path style="opacity:0.071" fill="#c7c0de" d="M 526.5,119.5 C 526.833,119.5 527.167,119.5 527.5,119.5C 527.666,125.509 527.499,131.509 527,137.5C 526.79,139.058 526.29,140.391 525.5,141.5C 526.302,134.196 526.635,126.862 526.5,119.5 Z"/></g>
<g><path style="opacity:0.702" fill="#a499c9" d="M 585.5,133.5 C 588.067,133.721 590.401,134.388 592.5,135.5C 589.772,135.829 587.438,135.163 585.5,133.5 Z"/></g>
<g><path style="opacity:0.004" fill="#fafafc" d="M 599.5,134.5 C 600.833,135.167 600.833,135.167 599.5,134.5 Z"/></g>
<g><path style="opacity:0.008" fill="#fafafc" d="M 750.5,134.5 C 751.833,135.167 751.833,135.167 750.5,134.5 Z"/></g>
<g><path style="opacity:0.349" fill="#fabda4" d="M 161.5,133.5 C 162.906,133.973 163.573,134.973 163.5,136.5C 162.094,136.027 161.427,135.027 161.5,133.5 Z"/></g>
<g><path style="opacity:0.012" fill="#f9f9fb" d="M 544.5,135.5 C 545.833,136.167 545.833,136.167 544.5,135.5 Z"/></g>
<g><path style="opacity:0.012" fill="#f9f9fb" d="M 603.5,135.5 C 604.833,136.167 604.833,136.167 603.5,135.5 Z"/></g>
<g><path style="opacity:0.008" fill="#fafafc" d="M 689.5,135.5 C 690.833,136.167 690.833,136.167 689.5,135.5 Z"/></g>
<g><path style="opacity:0.251" fill="#fbcab5" d="M 10.5,135.5 C 10.573,137.027 9.90632,138.027 8.5,138.5C 8.42702,136.973 9.09368,135.973 10.5,135.5 Z"/></g>
<g><path style="opacity:0.353" fill="#bbb3d7" d="M 750.5,135.5 C 750.167,136.167 749.833,136.833 749.5,137.5C 748.508,144.648 748.175,151.981 748.5,159.5C 748.167,159.5 747.833,159.5 747.5,159.5C 747.5,152.5 747.5,145.5 747.5,138.5C 726.993,138.83 706.66,138.497 686.5,137.5C 686.833,137.5 687.167,137.5 687.5,137.5C 707.511,137.833 727.511,137.5 747.5,136.5C 746.494,135.604 746.494,134.938 747.5,134.5C 748.417,135.127 749.417,135.461 750.5,135.5 Z"/></g>
<g><path style="opacity:0.004" fill="#fbfbfc" d="M 749.5,137.5 C 750.833,138.167 750.833,138.167 749.5,137.5 Z"/></g>
<g><path style="opacity:0.251" fill="#fbcbb5" d="M 164.5,138.5 C 165.906,138.973 166.573,139.973 166.5,141.5C 165.094,141.027 164.427,140.027 164.5,138.5 Z"/></g>
<g><path style="opacity:0.812" fill="#877ab8" d="M 497.5,138.5 C 497.167,140.833 495.833,142.167 493.5,142.5C 494.5,140.833 495.833,139.5 497.5,138.5 Z"/></g>
<g><path style="opacity:0.008" fill="#f8f8fb" d="M 620.5,141.5 C 621.833,142.167 621.833,142.167 620.5,141.5 Z"/></g>
<g><path style="opacity:0.953" fill="#9184be" d="M 493.5,142.5 C 492.01,144.28 490.01,144.946 487.5,144.5C 489.302,143.542 491.302,142.875 493.5,142.5 Z"/></g>
<g><path style="opacity:0.275" fill="#fbc3ac" d="M 6.5,142.5 C 6.57298,144.027 5.90632,145.027 4.5,145.5C 4.42702,143.973 5.09368,142.973 6.5,142.5 Z"/></g>
<g><path style="opacity:0.671" fill="#8476b5" d="M 487.5,144.5 C 481.916,146.034 476.083,146.701 470,146.5C 465.653,146.499 461.486,146.166 457.5,145.5C 457.833,145.5 458.167,145.5 458.5,145.5C 468.188,145.62 477.854,145.287 487.5,144.5 Z"/></g>
<g><path style="opacity:0.294" fill="#fbc4ad" d="M 168.5,145.5 C 169.906,145.973 170.573,146.973 170.5,148.5C 169.094,148.027 168.427,147.027 168.5,145.5 Z"/></g>
<g><path style="opacity:0.58" fill="#afa5cf" d="M 555.5,147.5 C 557.027,147.427 558.027,148.094 558.5,149.5C 556.973,149.573 555.973,148.906 555.5,147.5 Z"/></g>
<g><path style="opacity:0.004" fill="#fafafc" d="M 628.5,147.5 C 629.833,148.167 629.833,148.167 628.5,147.5 Z"/></g>
<g><path style="opacity:0.004" fill="#f9f9fb" d="M 630.5,147.5 C 631.833,148.167 631.833,148.167 630.5,147.5 Z"/></g>
<g><path style="opacity:0.999" fill="#8ad2f5" d="M 176.5,149.5 C 206.456,150.484 236.456,150.818 266.5,150.5C 266.389,151.117 266.056,151.617 265.5,152C 236.161,152.833 206.828,152.667 177.5,151.5C 177.137,150.817 176.804,150.15 176.5,149.5 Z"/></g>
<g><path style="opacity:0.651" fill="#8a7dba" d="M 558.5,149.5 C 560.027,149.427 561.027,150.094 561.5,151.5C 559.973,151.573 558.973,150.906 558.5,149.5 Z"/></g>
<g><path style="opacity:0.314" fill="#fbbca3" d="M 2.5,149.5 C 2.57298,151.027 1.90632,152.027 0.5,152.5C 0.427017,150.973 1.09368,149.973 2.5,149.5 Z"/></g>
<g><path style="opacity:0.007" fill="#fefdfd" d="M 175.5,151.5 C 176.797,152.849 176.63,154.182 175,155.5C 174.421,154.072 174.588,152.738 175.5,151.5 Z"/></g>
<g><path style="opacity:0.004" fill="#f9f9fb" d="M 522.5,151.5 C 523.833,152.167 523.833,152.167 522.5,151.5 Z"/></g>
<g><path style="opacity:0.012" fill="#c7bfde" d="M 630.5,151.5 C 631.833,151.5 632.5,152.167 632.5,153.5C 631.5,153.167 630.833,152.5 630.5,151.5 Z"/></g>
<g><path style="opacity:0.255" fill="#fbcdb8" d="M 171.5,150.5 C 173.597,151.879 173.93,153.545 172.5,155.5C 172.371,153.784 172.038,152.117 171.5,150.5 Z"/></g>
<g><path style="opacity:0.012" fill="#f8f8fb" d="M 522.5,152.5 C 521.833,153.167 521.833,153.167 522.5,152.5 Z"/></g>
<g><path style="opacity:0.004" fill="#fbfbfc" d="M 559.5,152.5 C 560.833,153.167 560.833,153.167 559.5,152.5 Z"/></g>
<g><path style="opacity:0.007" fill="#fcfefe" d="M 178.5,154.5 C 179.251,153.427 180.251,153.26 181.5,154C 180.552,154.483 179.552,154.649 178.5,154.5 Z"/></g>
<g><path style="opacity:0.004" fill="#fdfeff" d="M 264.5,154.5 C 264.897,153.475 265.563,153.308 266.5,154C 265.906,154.464 265.239,154.631 264.5,154.5 Z"/></g>
<g><path style="opacity:0.004" fill="#f9f9fb" d="M 521.5,153.5 C 520.833,154.167 520.833,154.167 521.5,153.5 Z"/></g>
<g><path style="opacity:0.31" fill="#b5acd4" d="M 563.5,152.5 C 565.027,152.427 566.027,153.094 566.5,154.5C 564.973,154.573 563.973,153.906 563.5,152.5 Z"/></g>
<g><path style="opacity:0.008" fill="#f9f9fb" d="M 634.5,153.5 C 635.833,154.167 635.833,154.167 634.5,153.5 Z"/></g>
<g><path style="opacity:0.012" fill="#f7f7fa" d="M 750.5,155.5 C 751.833,156.167 751.833,156.167 750.5,155.5 Z"/></g>
<g><path style="opacity:0.883" fill="#fff687" d="M 265.5,157.5 C 236.165,157.333 206.831,157.5 177.5,158C 176.956,158.717 176.289,159.217 175.5,159.5C 175.511,157.983 176.177,156.816 177.5,156C 192.167,155.833 206.833,155.667 221.5,155.5C 236.516,155.501 251.182,156.167 265.5,157.5 Z"/></g>
<g><path style="opacity:0.005" fill="#fcfbfd" d="M 750.5,156.5 C 750.737,157.791 750.404,158.791 749.5,159.5C 749.263,158.209 749.596,157.209 750.5,156.5 Z"/></g>
<g><path style="opacity:0.871" fill="#fb9b7f" d="M 1.5,157.5 C 3.04814,157.821 3.71481,158.821 3.5,160.5C 2.59872,159.71 1.93205,158.71 1.5,157.5 Z"/></g>
<g><path style="opacity:1" fill="#fff10e" d="M 265.5,157.5 C 265.427,159.027 266.094,160.027 267.5,160.5C 268.674,161.514 269.34,162.847 269.5,164.5C 269.427,166.027 270.094,167.027 271.5,167.5C 273.56,170.24 275.226,173.24 276.5,176.5C 276.427,178.027 277.094,179.027 278.5,179.5C 279.674,180.514 280.34,181.847 280.5,183.5C 280.427,185.027 281.094,186.027 282.5,186.5C 283.338,186.842 283.672,187.508 283.5,188.5C 283.427,190.027 284.094,191.027 285.5,191.5C 286.674,192.514 287.34,193.847 287.5,195.5C 287.427,197.027 288.094,198.027 289.5,198.5C 290.674,199.514 291.34,200.847 291.5,202.5C 291.427,204.027 292.094,205.027 293.5,205.5C 294.338,205.842 294.672,206.508 294.5,207.5C 294.427,209.027 295.094,210.027 296.5,210.5C 297.674,211.514 298.34,212.847 298.5,214.5C 298.427,216.027 299.094,217.027 300.5,217.5C 301.338,217.842 301.672,218.508 301.5,219.5C 301.427,221.027 302.094,222.027 303.5,222.5C 304.674,223.514 305.34,224.847 305.5,226.5C 305.427,228.027 306.094,229.027 307.5,229.5C 308.338,229.842 308.672,230.508 308.5,231.5C 308.443,232.609 308.11,233.609 307.5,234.5C 307.672,235.492 307.338,236.158 306.5,236.5C 305.662,236.842 305.328,237.508 305.5,238.5C 305.068,239.71 304.401,240.71 303.5,241.5C 302.326,242.514 301.66,243.847 301.5,245.5C 300.094,245.973 299.427,246.973 299.5,248.5C 297.336,253.5 294.669,258.167 291.5,262.5C 290.599,263.29 289.932,264.29 289.5,265.5C 287.434,269.966 285.1,274.299 282.5,278.5C 281.094,278.973 280.427,279.973 280.5,281.5C 279.662,281.842 279.328,282.508 279.5,283.5C 277.197,288.446 274.531,293.113 271.5,297.5C 269.75,298.659 268.75,300.326 268.5,302.5C 267.094,302.973 266.427,303.973 266.5,305.5C 265.662,305.842 265.328,306.508 265.5,307.5C 235.997,308.83 206.331,308.83 176.5,307.5C 174.234,303.966 172.234,300.3 170.5,296.5C 170.715,294.821 170.048,293.821 168.5,293.5C 161.569,281.969 154.902,270.302 148.5,258.5C 148.715,256.821 148.048,255.821 146.5,255.5C 142.345,248.528 138.178,241.528 134,234.5C 133.262,232.119 133.762,230.119 135.5,228.5C 136.906,228.027 137.573,227.027 137.5,225.5C 137.66,223.847 138.326,222.514 139.5,221.5C 140.906,221.027 141.573,220.027 141.5,218.5C 142.774,215.24 144.44,212.24 146.5,209.5C 147.906,209.027 148.573,208.027 148.5,206.5C 148.66,204.847 149.326,203.514 150.5,202.5C 151.906,202.027 152.573,201.027 152.5,199.5C 153.774,196.24 155.44,193.24 157.5,190.5C 158.906,190.027 159.573,189.027 159.5,187.5C 161.997,181.835 164.997,176.502 168.5,171.5C 169.906,171.027 170.573,170.027 170.5,168.5C 171.774,165.24 173.44,162.24 175.5,159.5C 176.289,159.217 176.956,158.717 177.5,158C 206.831,157.5 236.165,157.333 265.5,157.5 Z"/></g>
<g><path style="opacity:0.012" fill="#f9f9fb" d="M 515.5,158.5 C 516.833,159.167 516.833,159.167 515.5,158.5 Z"/></g>
<g><path style="opacity:0.929" fill="#9185bf" d="M 578.5,158.5 C 582.286,158.32 585.619,159.32 588.5,161.5C 584.952,160.87 581.619,159.87 578.5,158.5 Z"/></g>
<g><path style="opacity:0.31" fill="#fff9b6" d="M 265.5,157.5 C 266.906,157.973 267.573,158.973 267.5,160.5C 266.094,160.027 265.427,159.027 265.5,157.5 Z"/></g>
<g><path style="opacity:0.365" fill="#b3a9d2" d="M 635.5,157.5 C 636.906,157.973 637.573,158.973 637.5,160.5C 636.094,160.027 635.427,159.027 635.5,157.5 Z"/></g>
<g><path style="opacity:0.059" fill="#edecf5" d="M 747.5,159.5 C 747.833,159.5 748.167,159.5 748.5,159.5C 748.833,159.5 749.167,159.5 749.5,159.5C 729.007,160.497 708.34,160.831 687.5,160.5C 687.5,170.833 687.5,181.167 687.5,191.5C 687.167,191.5 686.833,191.5 686.5,191.5C 686.5,180.833 686.5,170.167 686.5,159.5C 706.833,159.5 727.167,159.5 747.5,159.5 Z"/></g>
<g><path style="opacity:0.004" fill="#fafafc" d="M 511.5,161.5 C 512.833,162.167 512.833,162.167 511.5,161.5 Z"/></g>
<g><path style="opacity:0.796" fill="#9b8fc4" d="M 590.5,161.5 C 592.898,161.259 594.898,161.926 596.5,163.5C 594.214,163.405 592.214,162.738 590.5,161.5 Z"/></g>
<g><path style="opacity:0.776" fill="#a79ccb" d="M 597.5,163.5 C 599.898,163.259 601.898,163.926 603.5,165.5C 601.214,165.405 599.214,164.738 597.5,163.5 Z"/></g>
<g><path style="opacity:0.871" fill="#fb9f83" d="M 5.5,164.5 C 7.04814,164.821 7.71481,165.821 7.5,167.5C 6.59872,166.71 5.93205,165.71 5.5,164.5 Z"/></g>
<g><path style="opacity:0.341" fill="#fff8ae" d="M 269.5,164.5 C 270.906,164.973 271.573,165.973 271.5,167.5C 270.094,167.027 269.427,166.027 269.5,164.5 Z"/></g>
<g><path style="opacity:0.059" fill="#cec8e3" d="M 499.5,165.5 C 495.1,167.104 490.434,167.771 485.5,167.5C 489.964,166.356 494.63,165.69 499.5,165.5 Z"/></g>
<g><path style="opacity:0.082" fill="#fdddce" d="M 166.5,166.5 C 166.573,168.027 165.906,169.027 164.5,169.5C 164.427,167.973 165.094,166.973 166.5,166.5 Z"/></g>
<g><path style="opacity:0.007" fill="#fcfcfd" d="M 459.5,168.5 C 462.001,168.511 462.168,169.178 460,170.5C 459.536,169.906 459.369,169.239 459.5,168.5 Z"/></g>
<g><path style="opacity:0.91" fill="#fa9577" d="M 8.5,169.5 C 10.0481,169.821 10.7148,170.821 10.5,172.5C 9.59872,171.71 8.93205,170.71 8.5,169.5 Z"/></g>
<g><path style="opacity:0.584" fill="#a095c7" d="M 638.5,163.5 C 639.924,165.515 640.59,167.848 640.5,170.5C 639.076,168.485 638.41,166.152 638.5,163.5 Z"/></g>
<g><path style="opacity:0.318" fill="#fff8b3" d="M 170.5,168.5 C 170.573,170.027 169.906,171.027 168.5,171.5C 168.427,169.973 169.094,168.973 170.5,168.5 Z"/></g>
<g><path style="opacity:0.441" fill="#b5acd3" d="M 565.5,172.5 C 562.272,171.586 558.939,171.253 555.5,171.5C 558.36,170.756 561.36,170.089 564.5,169.5C 565.386,170.325 565.719,171.325 565.5,172.5 Z"/></g>
<g><path style="opacity:0.004" fill="#fafafc" d="M 568.5,176.5 C 569.833,177.167 569.833,177.167 568.5,176.5 Z"/></g>
<g><path style="opacity:0.451" fill="#9d91c5" d="M 613.5,172.5 C 614.117,172.611 614.617,172.944 615,173.5C 615.167,174.833 615.333,176.167 615.5,177.5C 615.639,179.883 614.972,181.883 613.5,183.5C 614.728,179.816 614.728,176.15 613.5,172.5 Z"/></g>
<g><path style="opacity:0.298" fill="#fff9b6" d="M 276.5,176.5 C 277.906,176.973 278.573,177.973 278.5,179.5C 277.094,179.027 276.427,178.027 276.5,176.5 Z"/></g>
<g><path style="opacity:0.137" fill="#fdd5c3" d="M 159.5,178.5 C 159.573,180.027 158.906,181.027 157.5,181.5C 157.427,179.973 158.094,178.973 159.5,178.5 Z"/></g>
<g><path style="opacity:0.863" fill="#fca185" d="M 16.5,183.5 C 18.0481,183.821 18.7148,184.821 18.5,186.5C 17.5987,185.71 16.9321,184.71 16.5,183.5 Z"/></g>
<g><path style="opacity:0.012" fill="#feede5" d="M 156.5,183.5 C 158.031,184.925 157.698,185.591 155.5,185.5C 155.328,184.508 155.662,183.842 156.5,183.5 Z"/></g>
<g><path style="opacity:0.02" fill="#d8d3e8" d="M 540.5,178.5 C 541.924,180.515 542.59,182.848 542.5,185.5C 541.076,183.485 540.41,181.152 540.5,178.5 Z"/></g>
<g><path style="opacity:0.322" fill="#fff9b1" d="M 280.5,183.5 C 281.906,183.973 282.573,184.973 282.5,186.5C 281.094,186.027 280.427,185.027 280.5,183.5 Z"/></g>
<g><path style="opacity:0.588" fill="#9c90c4" d="M 569.5,183.5 C 570.906,183.973 571.573,184.973 571.5,186.5C 570.094,186.027 569.427,185.027 569.5,183.5 Z"/></g>
<g><path style="opacity:0.22" fill="#cdc6e2" d="M 613.5,183.5 C 613.573,185.027 612.906,186.027 611.5,186.5C 611.427,184.973 612.094,183.973 613.5,183.5 Z"/></g>
<g><path style="opacity:0.008" fill="#fafafc" d="M 607.5,186.5 C 608.833,187.167 608.833,187.167 607.5,186.5 Z"/></g>
<g><path style="opacity:0.004" fill="#fbfbfc" d="M 540.5,187.5 C 541.833,188.167 541.833,188.167 540.5,187.5 Z"/></g>
<g><path style="opacity:0.29" fill="#fff9b7" d="M 159.5,187.5 C 159.573,189.027 158.906,190.027 157.5,190.5C 157.427,188.973 158.094,187.973 159.5,187.5 Z"/></g>
<g><path style="opacity:0.071" fill="#fedccd" d="M 19.5,188.5 C 20.9063,188.973 21.573,189.973 21.5,191.5C 20.0937,191.027 19.427,190.027 19.5,188.5 Z"/></g>
<g><path style="opacity:0.259" fill="#fffabe" d="M 283.5,188.5 C 284.906,188.973 285.573,189.973 285.5,191.5C 284.094,191.027 283.427,190.027 283.5,188.5 Z"/></g>
<g><path style="opacity:0.004" fill="#fcfdfd" d="M 587.5,192.5 C 587.897,191.475 588.563,191.308 589.5,192C 588.906,192.464 588.239,192.631 587.5,192.5 Z"/></g>
<g><path style="opacity:0.004" fill="#fcfdfd" d="M 591.5,191.5 C 592.833,192.167 592.833,192.167 591.5,191.5 Z"/></g>
<g><path style="opacity:0.41" fill="#c1b9db" d="M 686.5,191.5 C 686.833,191.5 687.167,191.5 687.5,191.5C 710.167,191.5 732.833,191.5 755.5,191.5C 755.5,199.167 755.5,206.833 755.5,214.5C 723.662,214.832 691.996,214.498 660.5,213.5C 692.004,213.832 723.338,213.498 754.5,212.5C 754.5,205.833 754.5,199.167 754.5,192.5C 731.661,192.831 708.994,192.497 686.5,191.5 Z"/></g>
<g><path style="opacity:0.322" fill="#9e93c6" d="M 581.5,192.5 C 586.453,193.329 591.453,193.663 596.5,193.5C 592.354,194.647 588.02,194.814 583.5,194C 582.584,193.722 581.918,193.222 581.5,192.5 Z"/></g>
<g><path style="opacity:0.004" fill="#f8f8fb" d="M 417.5,194.5 C 418.833,195.167 418.833,195.167 417.5,194.5 Z"/></g>
<g><path style="opacity:0.29" fill="#fff9b7" d="M 287.5,195.5 C 288.906,195.973 289.573,196.973 289.5,198.5C 288.094,198.027 287.427,197.027 287.5,195.5 Z"/></g>
<g><path style="opacity:0.004" fill="#fbfbfc" d="M 545.5,197.5 C 546.833,198.167 546.833,198.167 545.5,197.5 Z"/></g>
<g><path style="opacity:0.004" fill="#f9f9fb" d="M 548.5,199.5 C 547.833,200.167 547.833,200.167 548.5,199.5 Z"/></g>
<g><path style="opacity:0.259" fill="#fffabe" d="M 152.5,199.5 C 152.573,201.027 151.906,202.027 150.5,202.5C 150.427,200.973 151.094,199.973 152.5,199.5 Z"/></g>
<g><path style="opacity:0.125" fill="#fcd4c3" d="M 26.5,200.5 C 27.9063,200.973 28.573,201.973 28.5,203.5C 27.0937,203.027 26.427,202.027 26.5,200.5 Z"/></g>
<g><path style="opacity:0.012" fill="#d6d1e7" d="M 631.5,202.5 C 631.027,203.906 630.027,204.573 628.5,204.5C 628.973,203.094 629.973,202.427 631.5,202.5 Z"/></g>
<g><path style="opacity:0.325" fill="#fff9b1" d="M 291.5,202.5 C 292.906,202.973 293.573,203.973 293.5,205.5C 292.094,205.027 291.427,204.027 291.5,202.5 Z"/></g>
<g><path style="opacity:0.012" fill="#f7f7fa" d="M 553.5,204.5 C 552.833,205.167 552.833,205.167 553.5,204.5 Z"/></g>
<g><path style="opacity:0.09" fill="#fdd8c8" d="M 144.5,204.5 C 144.573,206.027 143.906,207.027 142.5,207.5C 142.427,205.973 143.094,204.973 144.5,204.5 Z"/></g>
<g><path style="opacity:0.004" fill="#e0dced" d="M 556.5,206.5 C 557.492,206.328 558.158,206.662 558.5,207.5C 557.075,209.031 556.409,208.698 556.5,206.5 Z"/></g>
<g><path style="opacity:0.008" fill="#fafafc" d="M 626.5,207.5 C 627.833,208.167 627.833,208.167 626.5,207.5 Z"/></g>
<g><path style="opacity:0.051" fill="#fee6dc" d="M 142.5,207.5 C 144.031,208.925 143.698,209.591 141.5,209.5C 141.328,208.508 141.662,207.842 142.5,207.5 Z"/></g>
<g><path style="opacity:0.298" fill="#fff9b5" d="M 148.5,206.5 C 148.573,208.027 147.906,209.027 146.5,209.5C 146.427,207.973 147.094,206.973 148.5,206.5 Z"/></g>
<g><path style="opacity:0.396" fill="#aba1ce" d="M 558.5,207.5 C 560.027,207.427 561.027,208.094 561.5,209.5C 559.973,209.573 558.973,208.906 558.5,207.5 Z"/></g>
<g><path style="opacity:0.075" fill="#fddbcc" d="M 30.5,207.5 C 31.9063,207.973 32.573,208.973 32.5,210.5C 31.0937,210.027 30.427,209.027 30.5,207.5 Z"/></g>
<g><path style="opacity:0.231" fill="#fffac2" d="M 294.5,207.5 C 295.906,207.973 296.573,208.973 296.5,210.5C 295.094,210.027 294.427,209.027 294.5,207.5 Z"/></g>
<g><path style="opacity:0.783" fill="#4c4298" d="M 329.5,91.5 C 329.5,131.833 329.5,172.167 329.5,212.5C 357.833,212.5 386.167,212.5 414.5,212.5C 414.5,205.833 414.5,199.167 414.5,192.5C 414.833,192.5 415.167,192.5 415.5,192.5C 415.5,199.5 415.5,206.5 415.5,213.5C 386.5,213.5 357.5,213.5 328.5,213.5C 328.168,172.663 328.501,131.997 329.5,91.5 Z"/></g>
<g><path style="opacity:0.783" fill="#6e61a9" d="M 660.5,90.5 C 660.833,90.5 661.167,90.5 661.5,90.5C 661.5,131.167 661.5,171.833 661.5,212.5C 692.5,212.5 723.5,212.5 754.5,212.5C 723.338,213.498 692.004,213.832 660.5,213.5C 660.5,172.5 660.5,131.5 660.5,90.5 Z"/></g>
<g><path style="opacity:0.033" fill="#efedf6" d="M 354.5,91.5 C 354.167,91.5 353.833,91.5 353.5,91.5C 345.5,91.5 337.5,91.5 329.5,91.5C 328.501,131.997 328.168,172.663 328.5,213.5C 357.5,213.5 386.5,213.5 415.5,213.5C 415.5,206.5 415.5,199.5 415.5,192.5C 415.5,192.167 415.5,191.833 415.5,191.5C 416.492,198.982 416.825,206.648 416.5,214.5C 386.833,214.5 357.167,214.5 327.5,214.5C 327.5,173.167 327.5,131.833 327.5,90.5C 336.682,90.1734 345.682,90.5067 354.5,91.5 Z"/></g>
<g><path style="opacity:0.031" fill="#dedaec" d="M 458.5,167.5 C 458.5,183.167 458.5,198.833 458.5,214.5C 449.651,214.826 440.984,214.493 432.5,213.5C 440.833,213.5 449.167,213.5 457.5,213.5C 457.17,197.991 457.504,182.658 458.5,167.5 Z"/></g>
<g><path style="opacity:0.961" fill="#978ac2" d="M 568.5,212.5 C 578.728,214.532 589.062,215.532 599.5,215.5C 594.35,216.651 589.016,216.817 583.5,216C 578.131,215.883 573.131,214.716 568.5,212.5 Z"/></g>
<g><path style="opacity:0.004" fill="#fee3d7" d="M 34.5,214.5 C 35.9063,214.973 36.573,215.973 36.5,217.5C 35.0937,217.027 34.427,216.027 34.5,214.5 Z"/></g>
<g><path style="opacity:0.004" fill="#fef5f0" d="M 138.5,214.5 C 140.011,216.838 139.677,217.504 137.5,216.5C 137.328,215.508 137.662,214.842 138.5,214.5 Z"/></g>
<g><path style="opacity:0.282" fill="#fff9b9" d="M 298.5,214.5 C 299.906,214.973 300.573,215.973 300.5,217.5C 299.094,217.027 298.427,216.027 298.5,214.5 Z"/></g>
<g><path style="opacity:0.929" fill="#f88c6f" d="M 37.5,219.5 C 39.0481,219.821 39.7148,220.821 39.5,222.5C 38.5987,221.71 37.9321,220.71 37.5,219.5 Z"/></g>
<g><path style="opacity:0.247" fill="#fffabe" d="M 141.5,218.5 C 141.573,220.027 140.906,221.027 139.5,221.5C 139.427,219.973 140.094,218.973 141.5,218.5 Z"/></g>
<g><path style="opacity:0.204" fill="#fffac9" d="M 301.5,219.5 C 302.906,219.973 303.573,220.973 303.5,222.5C 302.094,222.027 301.427,221.027 301.5,219.5 Z"/></g>
<g><path style="opacity:0.024" fill="#feeee6" d="M 134.5,221.5 C 136.031,222.925 135.698,223.591 133.5,223.5C 133.328,222.508 133.662,221.842 134.5,221.5 Z"/></g>
<g><path style="opacity:0.008" fill="#f9f9fb" d="M 318.5,222.5 C 319.833,223.167 319.833,223.167 318.5,222.5 Z"/></g>
<g><path style="opacity:0.277" fill="#c5bede" d="M 761.5,224.5 C 761.5,224.833 761.5,225.167 761.5,225.5C 613.097,225.168 464.763,225.502 316.5,226.5C 464.496,224.502 612.83,223.835 761.5,224.5 Z"/></g>
<g><path style="opacity:0.004" fill="#fefaf7" d="M 131.5,226.5 C 131.5,225.833 131.833,225.5 132.5,225.5C 134.424,225.711 134.757,226.377 133.5,227.5C 133.158,226.662 132.492,226.328 131.5,226.5 Z"/></g>
<g><path style="opacity:1" fill="#25258a" d="M 761.5,225.5 C 761.5,229.167 761.5,232.833 761.5,236.5C 615.163,235.835 469.163,236.502 323.5,238.5C 310.528,261.15 297.528,283.816 284.5,306.5C 283.5,306.5 282.5,306.5 281.5,306.5C 281.5,307.833 281.5,309.167 281.5,310.5C 280.773,312.954 279.773,315.287 278.5,317.5C 277.079,320.009 275.412,322.343 273.5,324.5C 237.239,325.493 200.906,325.826 164.5,325.5C 164.715,323.821 164.048,322.821 162.5,322.5C 150.929,303.032 139.596,283.365 128.5,263.5C 128.715,261.821 128.048,260.821 126.5,260.5C 125.833,259.167 125.167,257.833 124.5,256.5C 124.715,254.821 124.048,253.821 122.5,253.5C 122.5,253.167 122.5,252.833 122.5,252.5C 122.586,251.504 122.252,250.671 121.5,250C 89.5017,249.5 57.5017,249.333 25.5,249.5C 25.5,246.167 25.5,242.833 25.5,239.5C 60.2397,239.174 94.9063,239.507 129.5,240.5C 131.008,242.181 132.008,244.181 132.5,246.5C 132.427,248.027 133.094,249.027 134.5,249.5C 135.338,249.842 135.672,250.508 135.5,251.5C 135.427,253.027 136.094,254.027 137.5,254.5C 138.674,255.514 139.34,256.847 139.5,258.5C 139.427,260.027 140.094,261.027 141.5,261.5C 142.338,261.842 142.672,262.508 142.5,263.5C 141.972,264.847 141.805,266.181 142,267.5C 142.333,267.167 142.667,266.833 143,266.5C 143.708,267.381 144.542,268.047 145.5,268.5C 146.674,269.514 147.34,270.847 147.5,272.5C 147.427,274.027 148.094,275.027 149.5,275.5C 151.924,278.008 153.59,281.008 154.5,284.5C 154.427,286.027 155.094,287.027 156.5,287.5C 156.115,290.89 157.448,293.223 160.5,294.5C 161.674,295.514 162.34,296.847 162.5,298.5C 162.427,300.027 163.094,301.027 164.5,301.5C 166.412,303.657 168.079,305.991 169.5,308.5C 169.557,309.609 169.89,310.609 170.5,311.5C 170.328,312.492 170.662,313.158 171.5,313.5C 202.997,314.664 234.664,314.831 266.5,314C 267.252,313.329 267.586,312.496 267.5,311.5C 267.557,310.391 267.89,309.391 268.5,308.5C 269.167,308.5 269.5,308.167 269.5,307.5C 270.906,307.027 271.573,306.027 271.5,304.5C 271.66,302.847 272.326,301.514 273.5,300.5C 274.906,300.027 275.573,299.027 275.5,297.5C 275.992,295.181 276.992,293.181 278.5,291.5C 279.906,291.027 280.573,290.027 280.5,288.5C 280.328,287.508 280.662,286.842 281.5,286.5C 282.906,286.027 283.573,285.027 283.5,283.5C 283.66,281.847 284.326,280.514 285.5,279.5C 286.906,279.027 287.573,278.027 287.5,276.5C 287.328,275.508 287.662,274.842 288.5,274.5C 289.906,274.027 290.573,273.027 290.5,271.5C 290.328,270.508 290.662,269.842 291.5,269.5C 292.906,269.027 293.573,268.027 293.5,266.5C 293.66,264.847 294.326,263.514 295.5,262.5C 296.906,262.027 297.573,261.027 297.5,259.5C 300.093,257.992 301.426,255.659 301.5,252.5C 301.66,250.847 302.326,249.514 303.5,248.5C 304.906,248.027 305.573,247.027 305.5,245.5C 305.389,244.883 305.056,244.383 304.5,244C 306.056,243.28 307.056,242.113 307.5,240.5C 308.5,239.167 309.5,237.833 310.5,236.5C 311.906,236.027 312.573,235.027 312.5,233.5C 312.328,232.508 312.662,231.842 313.5,231.5C 314.906,231.027 315.573,230.027 315.5,228.5C 315.328,227.508 315.662,226.842 316.5,226.5C 464.763,225.502 613.097,225.168 761.5,225.5 Z"/></g>
<g><path style="opacity:0.004" fill="#fefcfb" d="M 133.5,227.5 C 132.833,228.167 132.833,228.167 133.5,227.5 Z"/></g>
<g><path style="opacity:0.302" fill="#fff9b6" d="M 137.5,225.5 C 137.573,227.027 136.906,228.027 135.5,228.5C 135.427,226.973 136.094,225.973 137.5,225.5 Z"/></g>
<g><path style="opacity:0.19" fill="#fbdbca" d="M 131.5,226.5 C 131.33,227.822 131.663,228.989 132.5,230C 131.407,231.365 130.074,231.699 128.5,231C 128.833,230.667 129.167,230.333 129.5,230C 100.33,229.832 71.3304,229.332 42.5,228.5C 72.3912,229.146 102.058,228.48 131.5,226.5 Z"/></g>
<g><path style="opacity:0.247" fill="#fffac3" d="M 305.5,226.5 C 306.906,226.973 307.573,227.973 307.5,229.5C 306.094,229.027 305.427,228.027 305.5,226.5 Z"/></g>
<g><path style="opacity:0.412" fill="#aca1ce" d="M 315.5,228.5 C 315.573,230.027 314.906,231.027 313.5,231.5C 313.427,229.973 314.094,228.973 315.5,228.5 Z"/></g>
<g><path style="opacity:0.01" fill="#fdfdf6" d="M 308.5,231.5 C 309.885,232.947 309.552,233.947 307.5,234.5C 308.11,233.609 308.443,232.609 308.5,231.5 Z"/></g>
<g><path style="opacity:0.325" fill="#bdb4d7" d="M 312.5,233.5 C 312.573,235.027 311.906,236.027 310.5,236.5C 310.427,234.973 311.094,233.973 312.5,233.5 Z"/></g>
<g><path style="opacity:0.291" fill="#c1b9db" d="M 761.5,236.5 C 761.5,236.833 761.5,237.167 761.5,237.5C 615.666,237.167 469.999,237.5 324.5,238.5C 324.167,238.5 323.833,238.5 323.5,238.5C 469.163,236.502 615.163,235.835 761.5,236.5 Z"/></g>
<g><path style="opacity:0.056" fill="#eeedf6" d="M 22.5,238.5 C 57.8333,237.167 93.1667,237.167 128.5,238.5C 93.8333,238.5 59.1667,238.5 24.5,238.5C 24.5,242.167 24.5,245.833 24.5,249.5C 24.5,249.833 24.5,250.167 24.5,250.5C 24.1667,250.5 23.8333,250.5 23.5,250.5C 23.8168,246.298 23.4834,242.298 22.5,238.5 Z"/></g>
<g><path style="opacity:0.024" fill="#fdfbeb" d="M 306.5,236.5 C 308.031,237.925 307.698,238.591 305.5,238.5C 305.328,237.508 305.662,236.842 306.5,236.5 Z"/></g>
<g><path style="opacity:0.004" fill="#fbfcfd" d="M 22.5,238.5 C 21.8333,239.167 21.8333,239.167 22.5,238.5 Z"/></g>
<g><path style="opacity:0.919" fill="#413a93" d="M 128.5,238.5 C 129.338,238.842 129.672,239.508 129.5,240.5C 94.9063,239.507 60.2397,239.174 25.5,239.5C 25.5,242.833 25.5,246.167 25.5,249.5C 25.1667,249.5 24.8333,249.5 24.5,249.5C 24.5,245.833 24.5,242.167 24.5,238.5C 59.1667,238.5 93.8333,238.5 128.5,238.5 Z"/></g>
<g><path style="opacity:0.004" fill="#fbfbfc" d="M 324.5,238.5 C 325.833,239.167 325.833,239.167 324.5,238.5 Z"/></g>
<g><path style="opacity:0.016" fill="#f8f8fb" d="M 307.5,240.5 C 306.833,239.167 306.833,239.167 307.5,240.5 Z"/></g>
<g><path style="opacity:0.024" fill="#fdfaea" d="M 303.5,241.5 C 303.771,243.38 303.104,244.713 301.5,245.5C 301.66,243.847 302.326,242.514 303.5,241.5 Z"/></g>
<g><path style="opacity:0.059" fill="#fffbdd" d="M 301.5,245.5 C 301.573,247.027 300.906,248.027 299.5,248.5C 299.427,246.973 300.094,245.973 301.5,245.5 Z"/></g>
<g><path style="opacity:0.282" fill="#c4bddc" d="M 305.5,245.5 C 305.573,247.027 304.906,248.027 303.5,248.5C 303.427,246.973 304.094,245.973 305.5,245.5 Z"/></g>
<g><path style="opacity:0.4" fill="#ada3cf" d="M 132.5,246.5 C 133.906,246.973 134.573,247.973 134.5,249.5C 133.094,249.027 132.427,248.027 132.5,246.5 Z"/></g>
<g><path style="opacity:0.595" fill="#8779b7" d="M 24.5,250.5 C 24.5,250.167 24.5,249.833 24.5,249.5C 24.8333,249.5 25.1667,249.5 25.5,249.5C 57.5017,249.333 89.5017,249.5 121.5,250C 122.252,250.671 122.586,251.504 122.5,252.5C 121.711,252.217 121.044,251.717 120.5,251C 88.5017,250.5 56.5017,250.333 24.5,250.5 Z"/></g>
<g><path style="opacity:0.004" fill="#fafafc" d="M 23.5,250.5 C 22.8333,251.167 22.8333,251.167 23.5,250.5 Z"/></g>
<g><path style="opacity:0.91" fill="#9589c1" d="M 122.5,253.5 C 124.048,253.821 124.715,254.821 124.5,256.5C 123.599,255.71 122.932,254.71 122.5,253.5 Z"/></g>
<g><path style="opacity:0.298" fill="#bdb5d8" d="M 135.5,251.5 C 136.906,251.973 137.573,252.973 137.5,254.5C 136.094,254.027 135.427,253.027 135.5,251.5 Z"/></g>
<g><path style="opacity:0.929" fill="#fff79d" d="M 146.5,255.5 C 148.048,255.821 148.715,256.821 148.5,258.5C 147.599,257.71 146.932,256.71 146.5,255.5 Z"/></g>
<g><path style="opacity:1" fill="#7e70b3" d="M 301.5,252.5 C 301.426,255.659 300.093,257.992 297.5,259.5C 298.079,256.669 299.412,254.336 301.5,252.5 Z"/></g>
<g><path style="opacity:0.902" fill="#9b8fc5" d="M 126.5,260.5 C 128.048,260.821 128.715,261.821 128.5,263.5C 127.599,262.71 126.932,261.71 126.5,260.5 Z"/></g>
<g><path style="opacity:0.341" fill="#b7aed4" d="M 139.5,258.5 C 140.906,258.973 141.573,259.973 141.5,261.5C 140.094,261.027 139.427,260.027 139.5,258.5 Z"/></g>
<g><path style="opacity:0.392" fill="#b5acd3" d="M 297.5,259.5 C 297.573,261.027 296.906,262.027 295.5,262.5C 295.427,260.973 296.094,259.973 297.5,259.5 Z"/></g>
<g><path style="opacity:0.014" fill="#fcfbef" d="M 291.5,262.5 C 291.414,263.496 291.748,264.329 292.5,265C 291.552,265.483 290.552,265.649 289.5,265.5C 289.932,264.29 290.599,263.29 291.5,262.5 Z"/></g>
<g><path style="opacity:1" fill="#6e5fab" d="M 142.5,263.5 C 143.89,264.899 144.89,266.566 145.5,268.5C 144.542,268.047 143.708,267.381 143,266.5C 142.667,266.833 142.333,267.167 142,267.5C 141.805,266.181 141.972,264.847 142.5,263.5 Z"/></g>
<g><path style="opacity:0.451" fill="#aca1ce" d="M 293.5,266.5 C 293.573,268.027 292.906,269.027 291.5,269.5C 291.427,267.973 292.094,266.973 293.5,266.5 Z"/></g>
<g><path style="opacity:0.008" fill="#fbfbfb" d="M 289.5,271.5 C 288.833,270.167 288.833,270.167 289.5,271.5 Z"/></g>
<g><path style="opacity:0.325" fill="#beb5d7" d="M 289.5,271.5 C 289.833,271.5 290.167,271.5 290.5,271.5C 290.573,273.027 289.906,274.027 288.5,274.5C 288.557,273.391 288.89,272.391 289.5,271.5 Z"/></g>
<g><path style="opacity:0.443" fill="#a69bca" d="M 147.5,272.5 C 148.906,272.973 149.573,273.973 149.5,275.5C 148.094,275.027 147.427,274.027 147.5,272.5 Z"/></g>
<g><path style="opacity:0.243" fill="#c9c3e0" d="M 287.5,276.5 C 287.573,278.027 286.906,279.027 285.5,279.5C 285.427,277.973 286.094,276.973 287.5,276.5 Z"/></g>
<g><path style="opacity:0.043" fill="#fefae4" d="M 282.5,278.5 C 282.573,280.027 281.906,281.027 280.5,281.5C 280.427,279.973 281.094,278.973 282.5,278.5 Z"/></g>
<g><path style="opacity:0.008" fill="#fdfbed" d="M 280.5,281.5 C 282.031,282.925 281.698,283.591 279.5,283.5C 279.328,282.508 279.662,281.842 280.5,281.5 Z"/></g>
<g><path style="opacity:0.678" fill="#bab1d6" d="M 283.5,283.5 C 283.573,285.027 282.906,286.027 281.5,286.5C 280.509,284.877 281.176,283.877 283.5,283.5 Z"/></g>
<g><path style="opacity:0.404" fill="#aea4cf" d="M 154.5,284.5 C 155.906,284.973 156.573,285.973 156.5,287.5C 155.094,287.027 154.427,286.027 154.5,284.5 Z"/></g>
<g><path style="opacity:1" fill="#7062ac" d="M 156.5,287.5 C 158.083,289.663 159.416,291.996 160.5,294.5C 157.448,293.223 156.115,290.89 156.5,287.5 Z"/></g>
<g><path style="opacity:0.184" fill="#d2cce4" d="M 280.5,288.5 C 280.573,290.027 279.906,291.027 278.5,291.5C 278.427,289.973 279.094,288.973 280.5,288.5 Z"/></g>
<g><path style="opacity:0.906" fill="#fff79e" d="M 168.5,293.5 C 170.048,293.821 170.715,294.821 170.5,296.5C 169.599,295.71 168.932,294.71 168.5,293.5 Z"/></g>
<g><path style="opacity:0.773" fill="#aea3ce" d="M 275.5,297.5 C 275.573,299.027 274.906,300.027 273.5,300.5C 272.509,298.877 273.176,297.877 275.5,297.5 Z"/></g>
<g><path style="opacity:0.49" fill="#a094c7" d="M 162.5,298.5 C 163.906,298.973 164.573,299.973 164.5,301.5C 163.094,301.027 162.427,300.027 162.5,298.5 Z"/></g>
<g><path style="opacity:0.004" fill="#fefcf1" d="M 271.5,297.5 C 271.25,299.674 270.25,301.341 268.5,302.5C 268.75,300.326 269.75,298.659 271.5,297.5 Z"/></g>
<g><path style="opacity:0.078" fill="#fffcdc" d="M 268.5,302.5 C 268.443,303.609 268.11,304.609 267.5,305.5C 267.167,305.5 266.833,305.5 266.5,305.5C 266.427,303.973 267.094,302.973 268.5,302.5 Z"/></g>
<g><path style="opacity:0.008" fill="#f9f9fa" d="M 267.5,305.5 C 268.833,306.167 268.833,306.167 267.5,305.5 Z"/></g>
<g><path style="opacity:0.006" fill="#fcfbfd" d="M 169.5,308.5 C 169.369,307.761 169.536,307.094 170,306.5C 170.692,307.437 170.525,308.103 169.5,308.5 Z"/></g>
<g><path style="opacity:0.005" fill="#faf8f4" d="M 266.5,305.5 C 266.5,306.167 266.833,306.5 267.5,306.5C 267.842,307.338 268.508,307.672 269.5,307.5C 269.5,308.167 269.167,308.5 268.5,308.5C 267.391,308.443 266.391,308.11 265.5,307.5C 265.328,306.508 265.662,305.842 266.5,305.5 Z"/></g>
<g><path style="opacity:0.424" fill="#afa5cf" d="M 271.5,304.5 C 271.573,306.027 270.906,307.027 269.5,307.5C 269.427,305.973 270.094,304.973 271.5,304.5 Z"/></g>
<g><path style="opacity:1" fill="#8173b6" d="M 284.5,306.5 C 283.974,308.23 282.974,309.564 281.5,310.5C 281.5,309.167 281.5,307.833 281.5,306.5C 282.5,306.5 283.5,306.5 284.5,306.5 Z"/></g>
<g><path style="opacity:0.004" fill="#fbfbfa" d="M 265.5,309.5 C 266.833,310.167 266.833,310.167 265.5,309.5 Z"/></g>
<g><path style="opacity:0.196" fill="#d7d3e9" d="M 265.5,312.5 C 266.167,312.167 266.833,311.833 267.5,311.5C 267.586,312.496 267.252,313.329 266.5,314C 234.664,314.831 202.997,314.664 171.5,313.5C 170.662,313.158 170.328,312.492 170.5,311.5C 172.372,310.205 174.038,310.372 175.5,312C 174.833,312.333 174.167,312.667 173.5,313C 204.336,313.831 235.003,313.664 265.5,312.5 Z"/></g>
<g><path style="opacity:0.004" fill="#fbfcfd" d="M 265.5,312.5 C 264.833,311.167 264.833,311.167 265.5,312.5 Z"/></g>
<g><path style="opacity:0.004" fill="#f9f8fc" d="M 278.5,317.5 C 279.525,317.897 279.692,318.563 279,319.5C 278.536,318.906 278.369,318.239 278.5,317.5 Z"/></g>
<g><path style="opacity:0.918" fill="#8f82be" d="M 162.5,322.5 C 164.048,322.821 164.715,323.821 164.5,325.5C 163.599,324.71 162.932,323.71 162.5,322.5 Z"/></g>
<g><path style="opacity:0.93" fill="#a59ac9" d="M 273.5,324.5 C 273.5,325.167 273.5,325.833 273.5,326.5C 237.167,326.5 200.833,326.5 164.5,326.5C 164.5,326.167 164.5,325.833 164.5,325.5C 200.906,325.826 237.239,325.493 273.5,324.5 Z"/></g>
</svg>
