<?xml version="1.0" encoding="UTF-8" standalone="no" ?>
<!DOCTYPE svg PUBLIC "-//W3C//DTD SVG 1.1//EN" "http://www.w3.org/Graphics/SVG/1.1/DTD/svg11.dtd">
<svg xmlns="http://www.w3.org/2000/svg" xmlns:xlink="http://www.w3.org/1999/xlink" version="1.1" width="1080" height="1080" viewBox="0 0 1080 1080" xml:space="preserve">
<desc>Created with Fabric.js 5.2.4</desc>
<defs>
</defs>
<rect x="0" y="0" width="100%" height="100%" fill="transparent"></rect>
<g transform="matrix(1 0 0 1 540 540)" id="d099e805-78fc-4bd7-bcc2-ec4697aea387"  >
</g>
<g transform="matrix(1 0 0 1 540 540)" id="c68cf1f1-a6d6-4390-96df-6f9d5b8234ec"  >
<rect style="stroke: none; stroke-width: 1; stroke-dasharray: none; stroke-linecap: butt; stroke-dashoffset: 0; stroke-linejoin: miter; stroke-miterlimit: 4; fill: rgb(255,255,255); fill-rule: nonzero; opacity: 1; visibility: hidden;" vector-effect="non-scaling-stroke"  x="-540" y="-540" rx="0" ry="0" width="1080" height="1080" />
</g>
<g transform="matrix(14.77 0 0 14.77 540.1 540.1)" id="ce109226-794f-4c8b-b826-3c9810574d73"  >
<circle style="stroke: rgb(0,0,0); stroke-width: 0; stroke-dasharray: none; stroke-linecap: butt; stroke-dashoffset: 0; stroke-linejoin: miter; stroke-miterlimit: 4; fill: rgb(64,66,88); fill-rule: nonzero; opacity: 1;" vector-effect="non-scaling-stroke"  cx="0" cy="0" r="35" />
</g>
<g transform="matrix(0 0 0 0 0 0)"  >
<g style=""   >
</g>
</g>
<g transform="matrix(0 0 0 0 0 0)"  >
<g style=""   >
</g>
</g>
<g transform="matrix(0 0 0 0 0 0)"  >
<g style=""   >
</g>
</g>
<g transform="matrix(0 0 0 0 0 0)"  >
<g style=""   >
</g>
</g>
<g transform="matrix(1 0 0 1 540 540)"  >
<g style="" vector-effect="non-scaling-stroke"   >
		<g transform="matrix(1 0 0 1 7.26 -5.73)"  >
<path style="stroke: none; stroke-width: 1; stroke-dasharray: none; stroke-linecap: butt; stroke-dashoffset: 0; stroke-linejoin: miter; stroke-miterlimit: 4; fill: rgb(230,230,230); fill-rule: nonzero; opacity: 1;" vector-effect="non-scaling-stroke"  transform=" translate(-241.52, -228.54)" d="M 468.52 102.595 L 468.52 354.475 C 468.52 365.615 460.94899999999996 374.995 450.65999999999997 377.725 C 448.67999999999995 378.25600000000003 446.59999999999997 378.535 444.46 378.535 L 38.58 378.535 C 25.29 378.535 14.518999999999998 367.76500000000004 14.518999999999998 354.475 L 14.518999999999998 102.59500000000003 C 14.518999999999998 89.30500000000004 25.29 78.53500000000003 38.58 78.53500000000003 L 444.46 78.53500000000003 C 446.59999999999997 78.53500000000003 448.68 78.81500000000003 450.65999999999997 79.34500000000003 C 460.949 82.075 468.52 91.455 468.52 102.595" stroke-linecap="round" />
</g>
		<g transform="matrix(1 0 0 1 7.26 -131.73)"  >
<path style="stroke: none; stroke-width: 1; stroke-dasharray: none; stroke-linecap: butt; stroke-dashoffset: 0; stroke-linejoin: miter; stroke-miterlimit: 4; fill: rgb(179,179,179); fill-rule: nonzero; opacity: 1;" vector-effect="non-scaling-stroke"  transform=" translate(-241.52, -102.53)" d="M 468.518 102.591 L 468.518 126.53099999999999 L 14.517999999999972 126.53099999999999 L 14.517999999999972 102.591 C 14.517999999999972 89.30099999999999 25.288999999999973 78.53099999999999 38.577999999999975 78.53099999999999 L 444.45799999999997 78.53099999999999 C 457.747 78.532 468.518 89.302 468.518 102.591" stroke-linecap="round" />
</g>
		<g transform="matrix(1 0 0 1 -132.71 -84.99)"  >
<rect style="stroke: none; stroke-width: 1; stroke-dasharray: none; stroke-linecap: butt; stroke-dashoffset: 0; stroke-linejoin: miter; stroke-miterlimit: 4; fill: rgb(153,153,153); fill-rule: nonzero; opacity: 1;" vector-effect="non-scaling-stroke"  x="-59.4505" y="-8.266" rx="0" ry="0" width="118.901" height="16.532" />
</g>
		<g transform="matrix(1 0 0 1 115.26 54.37)"  >
<polyline style="stroke: none; stroke-width: 1; stroke-dasharray: none; stroke-linecap: butt; stroke-dashoffset: 0; stroke-linejoin: miter; stroke-miterlimit: 4; fill: rgb(255,255,255); fill-rule: nonzero; opacity: 1;" vector-effect="non-scaling-stroke"  points="92.87,-65.87 -92.87,-65.87 -92.87,65.87 92.87,65.87 92.87,-65.87 " />
</g>
		<g transform="matrix(1 0 0 1 115.79 103.74)"  >
<polyline style="stroke: none; stroke-width: 1; stroke-dasharray: none; stroke-linecap: butt; stroke-dashoffset: 0; stroke-linejoin: miter; stroke-miterlimit: 4; fill: rgb(41,171,226); fill-rule: nonzero; opacity: 1;" vector-effect="non-scaling-stroke"  points="84.5,-8.27 -84.5,-8.27 -84.5,8.27 84.5,8.27 84.5,-8.27 " />
</g>
		<g transform="matrix(1 0 0 1 41.79 71.75)"  >
<polyline style="stroke: none; stroke-width: 1; stroke-dasharray: none; stroke-linecap: butt; stroke-dashoffset: 0; stroke-linejoin: miter; stroke-miterlimit: 4; fill: rgb(252,122,81); fill-rule: nonzero; opacity: 1;" vector-effect="non-scaling-stroke"  points="10.5,-8.27 -10.5,-8.27 -10.5,8.27 10.5,8.27 10.5,-8.27 " />
</g>
		<g transform="matrix(1 0 0 1 73.79 39.76)"  >
<polyline style="stroke: none; stroke-width: 1; stroke-dasharray: none; stroke-linecap: butt; stroke-dashoffset: 0; stroke-linejoin: miter; stroke-miterlimit: 4; fill: rgb(249,222,88); fill-rule: nonzero; opacity: 1;" vector-effect="non-scaling-stroke"  points="42.5,-8.27 -42.5,-8.27 -42.5,8.27 42.5,8.27 42.5,-8.27 " />
</g>
		<g transform="matrix(1 0 0 1 104.29 7.77)"  >
<polyline style="stroke: none; stroke-width: 1; stroke-dasharray: none; stroke-linecap: butt; stroke-dashoffset: 0; stroke-linejoin: miter; stroke-miterlimit: 4; fill: rgb(153,153,153); fill-rule: nonzero; opacity: 1;" vector-effect="non-scaling-stroke"  points="73,-8.27 -73,-8.27 -73,8.27 73,8.27 73,-8.27 " />
</g>
		<g transform="matrix(1 0 0 1 -186.74 -131.73)"  >
<circle style="stroke: none; stroke-width: 1; stroke-dasharray: none; stroke-linecap: butt; stroke-dashoffset: 0; stroke-linejoin: miter; stroke-miterlimit: 4; fill: rgb(252,122,81); fill-rule: nonzero; opacity: 1;" vector-effect="non-scaling-stroke"  cx="0" cy="0" r="15" />
</g>
		<g transform="matrix(1 0 0 1 -146.74 -131.73)"  >
<circle style="stroke: none; stroke-width: 1; stroke-dasharray: none; stroke-linecap: butt; stroke-dashoffset: 0; stroke-linejoin: miter; stroke-miterlimit: 4; fill: rgb(249,222,88); fill-rule: nonzero; opacity: 1;" vector-effect="non-scaling-stroke"  cx="0" cy="0" r="15" />
</g>
		<g transform="matrix(1 0 0 1 149.28 -0.99)"  >
<path style="stroke: none; stroke-width: 1; stroke-dasharray: none; stroke-linecap: butt; stroke-dashoffset: 0; stroke-linejoin: miter; stroke-miterlimit: 4; fill: rgb(238,238,238); fill-rule: nonzero; opacity: 1;" vector-effect="non-scaling-stroke"  transform=" translate(-383.54, -233.27)" d="M 463.696 88.139 C 466.723 92.163 468.51800000000003 97.16799999999999 468.51800000000003 102.592 L 468.51800000000003 126.532 L 445.197 126.532 C 445.237 162.43099999999998 425.777 197.11599999999999 391.753 214.879 C 389.651 215.79999999999998 387.53 216.658 385.388 217.453 L 388.162 222.766 L 442.38399999999996 222.766 L 442.38399999999996 354.49699999999996 L 298.563 354.49699999999996 L 305.889 378.53499999999997 L 444.459 378.53499999999997 C 446.599 378.53499999999997 448.67900000000003 378.255 450.659 377.72499999999997 C 460.949 374.99499999999995 468.519 365.61499999999995 468.519 354.47499999999997 L 468.519 102.59499999999997 C 468.52 97.17 466.725 92.164 463.696 88.139 M 463.657 88.088 C 463.669 88.104 463.68 88.119 463.693 88.13499999999999 C 463.681 88.12 463.669 88.103 463.657 88.088 M 463.621 88.04 C 463.62899999999996 88.05000000000001 463.63599999999997 88.06 463.644 88.07000000000001 C 463.636 88.06 463.629 88.05 463.621 88.04 M 463.59 87.999 C 463.59299999999996 88.003 463.59599999999995 88.00699999999999 463.599 88.011 C 463.596 88.007 463.593 88.003 463.59 87.999" stroke-linecap="round" />
</g>
		<g transform="matrix(1 0 0 1 216.36 -131.73)"  >
<path style="stroke: none; stroke-width: 1; stroke-dasharray: none; stroke-linecap: butt; stroke-dashoffset: 0; stroke-linejoin: miter; stroke-miterlimit: 4; fill: rgb(203,203,203); fill-rule: nonzero; opacity: 1;" vector-effect="non-scaling-stroke"  transform=" translate(-450.62, -102.53)" d="M 444.46 78.535 L 432.721 78.535 C 433.117 79.25099999999999 433.505 79.972 433.886 80.702 C 441.541 95.364 445.17900000000003 111.062 445.196 126.532 L 468.51700000000005 126.532 L 468.51700000000005 102.592 C 468.51700000000005 97.16799999999999 466.72200000000004 92.163 463.69500000000005 88.139 L 463.69500000000005 88.139 C 463.6940000000001 88.13799999999999 463.69300000000004 88.137 463.69200000000006 88.136 L 463.69200000000006 88.136 C 463.68000000000006 88.11999999999999 463.66900000000004 88.10499999999999 463.65600000000006 88.089 L 463.65600000000006 88.089 C 463.65100000000007 88.083 463.64700000000005 88.077 463.64200000000005 88.071 L 463.64200000000005 88.071 C 463.63400000000007 88.06099999999999 463.62700000000007 88.051 463.619 88.041 L 463.619 88.041 C 463.612 88.03099999999999 463.605 88.02199999999999 463.59700000000004 88.012 L 463.59700000000004 88.012 C 463.59400000000005 88.008 463.59100000000007 88.004 463.588 88 L 463.588 88 C 460.401 83.829 455.88 80.731 450.658 79.346 C 448.68 78.815 446.6 78.535 444.46 78.535" stroke-linecap="round" />
</g>
		<g transform="matrix(1 0 0 1 120.34 54.37)"  >
<path style="stroke: none; stroke-width: 1; stroke-dasharray: none; stroke-linecap: butt; stroke-dashoffset: 0; stroke-linejoin: miter; stroke-miterlimit: 4; fill: rgb(255,255,255); fill-rule: nonzero; opacity: 1;" vector-effect="non-scaling-stroke"  transform=" translate(-354.6, -288.63)" d="M 442.383 222.765 L 388.161 222.765 L 393.487 232.96699999999998 C 392.968 233.23799999999997 392.447 233.504 391.92600000000004 233.765 L 411.552 233.765 L 411.552 250.297 L 266.807 250.297 L 271.51800000000003 265.754 L 350.552 265.754 L 350.552 282.286 L 276.55600000000004 282.286 L 281.26700000000005 297.744 L 286.5520000000001 297.744 L 286.5520000000001 314.276 L 286.3060000000001 314.276 L 291.0170000000001 329.733 L 434.5530000000001 329.733 L 434.5530000000001 346.265 L 296.055 346.265 L 298.564 354.496 L 442.38300000000004 354.496 L 442.38300000000004 222.765" stroke-linecap="round" />
</g>
		<g transform="matrix(1 0 0 1 128.52 103.74)"  >
<polyline style="stroke: none; stroke-width: 1; stroke-dasharray: none; stroke-linecap: butt; stroke-dashoffset: 0; stroke-linejoin: miter; stroke-miterlimit: 4; fill: rgb(110,198,235); fill-rule: nonzero; opacity: 1;" vector-effect="non-scaling-stroke"  points="71.77,-8.27 -71.77,-8.27 -66.73,8.27 71.77,8.27 71.77,-8.27 " />
</g>
		<g transform="matrix(1 0 0 1 49.65 71.75)"  >
<polyline style="stroke: none; stroke-width: 1; stroke-dasharray: none; stroke-linecap: butt; stroke-dashoffset: 0; stroke-linejoin: miter; stroke-miterlimit: 4; fill: rgb(253,165,137); fill-rule: nonzero; opacity: 1;" vector-effect="non-scaling-stroke"  points="2.64,-8.27 -2.64,-8.27 2.4,8.27 2.64,8.27 2.64,-8.27 " />
</g>
		<g transform="matrix(1 0 0 1 76.77 39.76)"  >
<polyline style="stroke: none; stroke-width: 1; stroke-dasharray: none; stroke-linecap: butt; stroke-dashoffset: 0; stroke-linejoin: miter; stroke-miterlimit: 4; fill: rgb(251,233,142); fill-rule: nonzero; opacity: 1;" vector-effect="non-scaling-stroke"  points="39.52,-8.27 -39.52,-8.27 -34.48,8.27 39.52,8.27 39.52,-8.27 " />
</g>
		<g transform="matrix(1 0 0 1 40.95 -59.61)"  >
<path style="stroke: none; stroke-width: 1; stroke-dasharray: none; stroke-linecap: butt; stroke-dashoffset: 0; stroke-linejoin: miter; stroke-miterlimit: 4; fill: rgb(238,238,238); fill-rule: nonzero; opacity: 1;" vector-effect="non-scaling-stroke"  transform=" translate(-275.21, -174.65)" d="M 246.265 126.531 L 229.087 126.531 L 258.416 222.765 L 321.324 222.765 C 319.85900000000004 222.48299999999998 318.398 222.17399999999998 316.94 221.83599999999998 L 315.939 221.60399999999998 C 291.65700000000004 213.97899999999998 270.288 197.094 257.577 172.749 C 249.857 157.962 246.221 142.128 246.265 126.531" stroke-linecap="round" />
</g>
		<g transform="matrix(1 0 0 1 2.34 -131.73)"  >
<path style="stroke: none; stroke-width: 1; stroke-dasharray: none; stroke-linecap: butt; stroke-dashoffset: 0; stroke-linejoin: miter; stroke-miterlimit: 4; fill: rgb(203,203,203); fill-rule: nonzero; opacity: 1;" vector-effect="non-scaling-stroke"  transform=" translate(-236.6, -102.53)" d="M 258.73 78.535 L 214.46 78.535 L 229.08800000000002 126.531 L 246.26600000000002 126.531 C 246.294 116.45100000000001 247.86 106.46900000000001 250.853 96.93700000000001 C 252.852 90.569 255.489 84.4 258.73 78.535" stroke-linecap="round" />
</g>
		<g transform="matrix(1 0 0 1 56.4 0.21)"  >
<path style="stroke: none; stroke-width: 1; stroke-dasharray: none; stroke-linecap: butt; stroke-dashoffset: 0; stroke-linejoin: miter; stroke-miterlimit: 4; fill: rgb(255,255,255); fill-rule: nonzero; opacity: 1;" vector-effect="non-scaling-stroke"  transform=" translate(-290.66, -234.47)" d="M 321.324 222.765 L 258.416 222.765 L 265.552 246.17999999999998 L 265.552 233.765 L 319.535 233.765 L 322.89700000000005 223.057 C 322.373 222.963 321.848 222.866 321.324 222.765" stroke-linecap="round" />
</g>
		<g transform="matrix(1 0 0 1 104.29 7.77)"  >
<path style="stroke: none; stroke-width: 1; stroke-dasharray: none; stroke-linecap: butt; stroke-dashoffset: 0; stroke-linejoin: miter; stroke-miterlimit: 4; fill: rgb(186,186,186); fill-rule: nonzero; opacity: 1;" vector-effect="non-scaling-stroke"  transform=" translate(-338.55, -242.03)" d="M 411.552 233.765 L 391.92600000000004 233.765 C 377.67600000000004 240.89399999999998 362.50500000000005 244.279 347.54300000000006 244.279 C 337.37000000000006 244.279 327.2920000000001 242.713 317.6740000000001 239.69299999999998 L 319.5350000000001 233.765 L 265.5520000000001 233.765 L 265.5520000000001 246.17999999999998 L 266.8070000000001 250.29699999999997 L 411.5520000000001 250.29699999999997 L 411.5520000000001 233.765" stroke-linecap="round" />
</g>
		<g transform="matrix(1 0 0 1 143.02 -14.15)"  >
<path style="stroke: none; stroke-width: 1; stroke-dasharray: none; stroke-linecap: butt; stroke-dashoffset: 0; stroke-linejoin: miter; stroke-miterlimit: 4; fill: rgb(206,206,206); fill-rule: nonzero; opacity: 1;" vector-effect="non-scaling-stroke"  transform=" translate(-377.28, -220.11)" d="M 385.387 217.453 C 379.191 219.75300000000001 372.836 221.526 366.39300000000003 222.766 L 388.16 222.766 L 385.387 217.453" stroke-linecap="round" />
</g>
		<g transform="matrix(1 0 0 1 122.25 -6)"  >
<path style="stroke: none; stroke-width: 1; stroke-dasharray: none; stroke-linecap: butt; stroke-dashoffset: 0; stroke-linejoin: miter; stroke-miterlimit: 4; fill: rgb(219,219,219); fill-rule: nonzero; opacity: 1;" vector-effect="non-scaling-stroke"  transform=" translate(-356.51, -228.26)" d="M 388.161 222.765 L 366.394 222.765 C 358.966 224.19299999999998 351.421 224.91199999999998 343.858 224.91199999999998 C 336.859 224.91199999999998 329.843 224.29599999999996 322.899 223.057 L 319.537 233.765 L 391.928 233.765 C 392.449 233.504 392.96999999999997 233.238 393.489 232.96699999999998 L 388.161 222.765" stroke-linecap="round" />
</g>
		<g transform="matrix(1 0 0 1 120.54 4.76)"  >
<path style="stroke: none; stroke-width: 1; stroke-dasharray: none; stroke-linecap: butt; stroke-dashoffset: 0; stroke-linejoin: miter; stroke-miterlimit: 4; fill: rgb(164,164,164); fill-rule: nonzero; opacity: 1;" vector-effect="non-scaling-stroke"  transform=" translate(-354.8, -239.02)" d="M 391.926 233.765 L 319.53499999999997 233.765 L 317.674 239.69299999999998 C 327.292 242.713 337.37 244.279 347.543 244.279 C 362.505 244.279 377.677 240.894 391.926 233.765" stroke-linecap="round" />
</g>
		<g transform="matrix(1 0 0 1 111.46 -181.36)"  >
<path style="stroke: none; stroke-width: 1; stroke-dasharray: none; stroke-linecap: butt; stroke-dashoffset: 0; stroke-linejoin: miter; stroke-miterlimit: 4; fill: rgb(219,219,219); fill-rule: nonzero; opacity: 1;" vector-effect="non-scaling-stroke"  transform=" translate(-345.72, -52.9)" d="M 345.64 27.261 C 330.133 27.261 314.4 30.898 299.704 38.57 C 281.749 47.944 267.849 62.036 258.731 78.531 L 432.71799999999996 78.531 C 419.89 55.351000000000006 399.07699999999994 39.24300000000001 375.51899999999995 31.849000000000004 C 365.898 28.829 355.817 27.261 345.64 27.261" stroke-linecap="round" />
</g>
		<g transform="matrix(1 0 0 1 111.47 -155.73)"  >
<polyline style="stroke: none; stroke-width: 1; stroke-dasharray: none; stroke-linecap: butt; stroke-dashoffset: 0; stroke-linejoin: miter; stroke-miterlimit: 4; fill: rgb(159,159,159); fill-rule: nonzero; opacity: 1;" vector-effect="non-scaling-stroke"  points="86.99,0 -86.99,0 -87,0 87,0 86.99,0 " />
</g>
		<g transform="matrix(1 0 0 1 111.47 -59.61)"  >
<path style="stroke: none; stroke-width: 1; stroke-dasharray: none; stroke-linecap: butt; stroke-dashoffset: 0; stroke-linejoin: miter; stroke-miterlimit: 4; fill: rgb(206,206,206); fill-rule: nonzero; opacity: 1;" vector-effect="non-scaling-stroke"  transform=" translate(-345.73, -174.65)" d="M 445.196 126.531 L 246.265 126.531 C 246.22099999999998 142.12800000000001 249.857 157.961 257.577 172.74900000000002 C 270.288 197.09400000000002 291.657 213.979 315.939 221.604 L 316.94 221.836 C 318.398 222.174 319.859 222.483 321.324 222.76500000000001 L 366.39300000000003 222.76500000000001 C 372.836 221.526 379.19000000000005 219.75300000000001 385.38700000000006 217.45200000000003 C 387.52900000000005 216.65700000000004 389.65000000000003 215.79900000000004 391.75200000000007 214.87800000000001 C 425.776 197.115 445.237 162.431 445.196 126.531" stroke-linecap="round" />
</g>
		<g transform="matrix(1 0 0 1 111.47 -131.73)"  >
<path style="stroke: none; stroke-width: 1; stroke-dasharray: none; stroke-linecap: butt; stroke-dashoffset: 0; stroke-linejoin: miter; stroke-miterlimit: 4; fill: rgb(178,178,178); fill-rule: nonzero; opacity: 1;" vector-effect="non-scaling-stroke"  transform=" translate(-345.73, -102.53)" d="M 432.721 78.535 L 258.73 78.535 C 255.489 84.39999999999999 252.85200000000003 90.568 250.85200000000003 96.937 C 247.85900000000004 106.469 246.29300000000003 116.452 246.26500000000004 126.531 L 445.196 126.531 C 445.17900000000003 111.06200000000001 441.54 95.363 433.886 80.70100000000001 C 433.505 79.972 433.117 79.251 432.721 78.535" stroke-linecap="round" />
</g>
		<g transform="matrix(1 0 0 1 109.6 -10.42)"  >
<path style="stroke: none; stroke-width: 1; stroke-dasharray: none; stroke-linecap: butt; stroke-dashoffset: 0; stroke-linejoin: miter; stroke-miterlimit: 4; fill: rgb(219,219,219); fill-rule: nonzero; opacity: 1;" vector-effect="non-scaling-stroke"  transform=" translate(-343.86, -223.84)" d="M 366.393 222.765 L 321.32399999999996 222.765 C 321.84799999999996 222.86599999999999 322.37299999999993 222.963 322.89799999999997 223.057 C 329.84299999999996 224.296 336.85799999999995 224.91199999999998 343.85699999999997 224.91199999999998 C 351.42 224.912 358.965 224.193 366.393 222.765" stroke-linecap="round" />
</g>
		<g transform="matrix(1 0 0 1 61.74 -88.5)"  >
<path style="stroke: none; stroke-width: 1; stroke-dasharray: none; stroke-linecap: butt; stroke-dashoffset: 0; stroke-linejoin: miter; stroke-miterlimit: 4; fill: rgb(249,222,88); fill-rule: nonzero; opacity: 1;" vector-effect="non-scaling-stroke"  transform=" translate(-296, -145.76)" d="M 345.73 113.225 L 340.49 129.915 L 315.94 208.095 C 291.65999999999997 200.475 270.29 183.585 257.58 159.245 C 244.86999999999998 134.895 243.23 107.715 250.85 83.435 L 334.31 109.635 L 345.73 113.225 z" stroke-linecap="round" />
</g>
		<g transform="matrix(1 0 0 1 121.32 -53.22)"  >
<path style="stroke: none; stroke-width: 1; stroke-dasharray: none; stroke-linecap: butt; stroke-dashoffset: 0; stroke-linejoin: miter; stroke-miterlimit: 4; fill: rgb(41,171,226); fill-rule: nonzero; opacity: 1;" vector-effect="non-scaling-stroke"  transform=" translate(-355.58, -181.04)" d="M 393.49 219.465 C 386.01 223.365 378.26 226.225 370.41 228.095 C 352.71000000000004 232.305 334.5 231.475 317.67 226.185 L 344.14 141.89499999999998 L 347.46 131.30499999999998 L 393.49 219.465 z" stroke-linecap="round" />
</g>
		<g transform="matrix(1 0 0 1 113.76 -126.69)"  >
<path style="stroke: none; stroke-width: 1; stroke-dasharray: none; stroke-linecap: butt; stroke-dashoffset: 0; stroke-linejoin: miter; stroke-miterlimit: 4; fill: rgb(252,122,81); fill-rule: nonzero; opacity: 1;" vector-effect="non-scaling-stroke"  transform=" translate(-348.02, -107.57)" d="M 391.75 201.375 L 345.73 113.225 L 334.31 109.63499999999999 L 250.85000000000002 83.43499999999999 C 258.48 59.14499999999999 275.36 37.77499999999999 299.70000000000005 25.06499999999999 C 302.25000000000006 23.734999999999992 304.82000000000005 22.52499999999999 307.43000000000006 21.44499999999999 C 329.70000000000005 12.11499999999999 353.7800000000001 11.51499999999999 375.5200000000001 18.344999999999988 C 399.8100000000001 25.96499999999999 421.18000000000006 42.844999999999985 433.8900000000001 67.195 C 459.3 115.885 440.44 175.955 391.75 201.375 z" stroke-linecap="round" />
</g>
		<g transform="matrix(1 0 0 1 -100.74 27.37)"  >
<polyline style="stroke: none; stroke-width: 1; stroke-dasharray: none; stroke-linecap: butt; stroke-dashoffset: 0; stroke-linejoin: miter; stroke-miterlimit: 4; fill: rgb(255,255,255); fill-rule: nonzero; opacity: 1;" vector-effect="non-scaling-stroke"  points="92.87,-92.87 -92.87,-92.87 -92.87,92.87 92.87,92.87 92.87,-92.87 " />
</g>
		<g transform="matrix(1 0 0 1 -158.66 64.74)"  >
<polyline style="stroke: none; stroke-width: 1; stroke-dasharray: none; stroke-linecap: butt; stroke-dashoffset: 0; stroke-linejoin: miter; stroke-miterlimit: 4; fill: rgb(43,224,198); fill-rule: nonzero; opacity: 1;" vector-effect="non-scaling-stroke"  points="18,-45 -18,-45 -18,45 18,45 18,-45 " />
</g>
		<g transform="matrix(1 0 0 1 -100.74 49.74)"  >
<polyline style="stroke: none; stroke-width: 1; stroke-dasharray: none; stroke-linecap: butt; stroke-dashoffset: 0; stroke-linejoin: miter; stroke-miterlimit: 4; fill: rgb(249,222,88); fill-rule: nonzero; opacity: 1;" vector-effect="non-scaling-stroke"  points="18,-60 -18,-60 -18,60 18,60 18,-60 " />
</g>
		<g transform="matrix(1 0 0 1 -42.83 33.24)"  >
<polyline style="stroke: none; stroke-width: 1; stroke-dasharray: none; stroke-linecap: butt; stroke-dashoffset: 0; stroke-linejoin: miter; stroke-miterlimit: 4; fill: rgb(252,122,81); fill-rule: nonzero; opacity: 1;" vector-effect="non-scaling-stroke"  points="18,-76.5 -18,-76.5 -18,76.5 18,76.5 18,-76.5 " />
</g>
		<g transform="matrix(1 0 0 1 -112.84 156)"  >
<polyline style="stroke: none; stroke-width: 1; stroke-dasharray: none; stroke-linecap: butt; stroke-dashoffset: 0; stroke-linejoin: miter; stroke-miterlimit: 4; fill: rgb(41,171,226); fill-rule: nonzero; opacity: 1;" vector-effect="non-scaling-stroke"  points="121.42,-64.5 121.42,64.5 -121.42,64.5 -121.42,-64.5 121.42,-64.5 " />
</g>
		<g transform="matrix(1 0 0 1 -112.85 156)"  >
<polyline style="stroke: none; stroke-width: 1; stroke-dasharray: none; stroke-linecap: butt; stroke-dashoffset: 0; stroke-linejoin: miter; stroke-miterlimit: 4; fill: rgb(242,242,242); fill-rule: nonzero; opacity: 1;" vector-effect="non-scaling-stroke"  points="-106.41,49.5 -106.41,-49.5 106.41,-49.5 106.41,49.5 -106.41,49.5 " />
</g>
		<g transform="matrix(1 0 0 1 -100.45 156)"  >
<polyline style="stroke: none; stroke-width: 1; stroke-dasharray: none; stroke-linecap: butt; stroke-dashoffset: 0; stroke-linejoin: miter; stroke-miterlimit: 4; fill: rgb(252,122,81); fill-rule: nonzero; opacity: 1;" vector-effect="non-scaling-stroke"  points="-25.75,40.71 -46.4,18.34 -55.15,30.2 -61.91,25.22 -47.13,5.16 -27.46,26.47 3.43,-29.31 26.97,8.54 54.58,-40.71 61.91,-36.6 27.35,25.04 3.85,-12.73 -25.75,40.71 " />
</g>
		<g transform="matrix(1 0 0 1 -194.76 129)"  >
<rect style="stroke: none; stroke-width: 1; stroke-dasharray: none; stroke-linecap: butt; stroke-dashoffset: 0; stroke-linejoin: miter; stroke-miterlimit: 4; fill: rgb(153,153,153); fill-rule: nonzero; opacity: 1;" vector-effect="non-scaling-stroke"  x="-13.5" y="-5.5" rx="0" ry="0" width="27" height="11" />
</g>
		<g transform="matrix(1 0 0 1 -194.76 156)"  >
<rect style="stroke: none; stroke-width: 1; stroke-dasharray: none; stroke-linecap: butt; stroke-dashoffset: 0; stroke-linejoin: miter; stroke-miterlimit: 4; fill: rgb(153,153,153); fill-rule: nonzero; opacity: 1;" vector-effect="non-scaling-stroke"  x="-13.5" y="-5.5" rx="0" ry="0" width="27" height="11" />
</g>
		<g transform="matrix(1 0 0 1 -194.76 183)"  >
<rect style="stroke: none; stroke-width: 1; stroke-dasharray: none; stroke-linecap: butt; stroke-dashoffset: 0; stroke-linejoin: miter; stroke-miterlimit: 4; fill: rgb(153,153,153); fill-rule: nonzero; opacity: 1;" vector-effect="non-scaling-stroke"  x="-13.5" y="-5.5" rx="0" ry="0" width="27" height="11" />
</g>
		<g transform="matrix(1 0 0 1 -66.4 156)"  >
<polyline style="stroke: none; stroke-width: 1; stroke-dasharray: none; stroke-linecap: butt; stroke-dashoffset: 0; stroke-linejoin: miter; stroke-miterlimit: 4; fill: rgb(110,198,235); fill-rule: nonzero; opacity: 1;" vector-effect="non-scaling-stroke"  points="74.97,-64.5 41.58,-64.5 5.58,-64.5 -16.34,-64.5 -52.34,-64.5 -74.26,-64.5 -74.98,-64.5 -70.4,-49.5 59.97,-49.5 59.97,49.5 -40.24,49.5 -35.67,64.5 74.97,64.5 74.97,-64.5 " />
</g>
		<g transform="matrix(1 0 0 1 -71.62 156)"  >
<polyline style="stroke: none; stroke-width: 1; stroke-dasharray: none; stroke-linecap: butt; stroke-dashoffset: 0; stroke-linejoin: miter; stroke-miterlimit: 4; fill: rgb(246,246,246); fill-rule: nonzero; opacity: 1;" vector-effect="non-scaling-stroke"  points="65.19,-49.5 -65.19,-49.5 -47.1,9.87 -25.4,-29.31 -1.85,8.54 25.75,-40.71 33.08,-36.6 -1.48,25.04 -24.98,-12.73 -43.69,21.06 -35.02,49.5 65.19,49.5 65.19,-49.5 " />
</g>
		<g transform="matrix(1 0 0 1 -78.63 148.17)"  >
<polyline style="stroke: none; stroke-width: 1; stroke-dasharray: none; stroke-linecap: butt; stroke-dashoffset: 0; stroke-linejoin: miter; stroke-miterlimit: 4; fill: rgb(253,165,137); fill-rule: nonzero; opacity: 1;" vector-effect="non-scaling-stroke"  points="32.76,-32.88 5.15,16.37 -18.39,-21.47 -40.09,17.71 -36.68,28.89 -17.97,-4.89 5.53,32.88 40.09,-28.77 32.76,-32.88 " />
</g>
		<g transform="matrix(1 0 0 1 163.31 147.76)"  >
<path style="stroke: none; stroke-width: 1; stroke-dasharray: none; stroke-linecap: butt; stroke-dashoffset: 0; stroke-linejoin: miter; stroke-miterlimit: 4; fill: rgb(204,204,204); fill-rule: nonzero; opacity: 1;" vector-effect="non-scaling-stroke"  transform=" translate(-397.57, -382.02)" d="M 393.695 417.909 L 402.18 397.247 L 427.431 422.498 C 428.895 423.962 430.818 424.697 432.734 424.69 C 434.657 424.69 436.57399999999996 423.962 438.037 422.498 C 440.971 419.56399999999996 440.964 414.819 438.037 411.89099999999996 L 412.786 386.64 L 433.455 378.14799999999997 L 354.89599999999996 339.356 L 393.695 417.909 z" stroke-linecap="round" />
</g>
		<g transform="matrix(1 0 0 1 162.21 147.76)"  >
<path style="stroke: none; stroke-width: 1; stroke-dasharray: none; stroke-linecap: butt; stroke-dashoffset: 0; stroke-linejoin: miter; stroke-miterlimit: 4; fill: rgb(128,128,128); fill-rule: nonzero; opacity: 1;" vector-effect="non-scaling-stroke"  transform=" translate(-396.47, -382.02)" d="M 393.695 417.909 L 402.18 397.247 L 427.431 422.498 C 428.895 423.962 430.818 424.697 432.734 424.69 C 434.657 424.69 436.57399999999996 423.962 438.037 422.498 L 354.895 339.356 L 393.695 417.909 z" stroke-linecap="round" />
</g>
</g>
</g>
<g transform="matrix(NaN NaN NaN NaN 0 0)"  >
<g style=""   >
</g>
</g>
<g transform="matrix(NaN NaN NaN NaN 0 0)"  >
<g style=""   >
</g>
</g>
<g transform="matrix(NaN NaN NaN NaN 0 0)"  >
<g style=""   >
</g>
</g>
<g transform="matrix(NaN NaN NaN NaN 0 0)"  >
<g style=""   >
</g>
</g>
</svg>