<?xml version="1.0" encoding="iso-8859-1"?>
<!-- Uploaded to: SVG Repo, www.svgrepo.com, Generator: SVG Repo Mixer Tools -->
<svg version="1.1" id="Layer_1" xmlns="http://www.w3.org/2000/svg" xmlns:xlink="http://www.w3.org/1999/xlink" 
	 viewBox="0 0 473.935 473.935" xml:space="preserve">
<circle style="fill:#4ABC96;" cx="236.967" cy="236.967" r="236.967"/>
<g>
	<path style="fill:#A3D4AA;" d="M348.11,176.698c0,6.039-4.898,10.934-10.933,10.934h-68.318c-6.035,0-10.933-4.898-10.933-10.934
		v-39.622c0-6.036,4.898-10.93,10.933-10.93h68.314c6.039,0,10.934,4.894,10.934,10.93v39.622H348.11z"/>
	<path style="fill:#A3D4AA;" d="M379.421,303.949c0,19.644-15.921,35.562-35.562,35.562H121.601
		c-19.641,0-35.562-15.918-35.562-35.562V175.041c0-19.637,15.921-35.562,35.562-35.562h222.255
		c19.641,0,35.562,15.925,35.562,35.562v128.908H379.421z"/>
</g>
<rect x="285.323" y="131.372" transform="matrix(-0.7071 0.7071 -0.7071 -0.7071 623.7882 76.724)" style="opacity:0.15;enable-background:new    ;" width="21.362" height="72.362"/>
<g>
	<path style="fill:#F6A2A3;" d="M281.424,182.255c0,6.036-4.898,10.934-10.934,10.934h-68.31c-6.036,0-10.934-4.898-10.934-10.934
		v-39.622c0-6.035,4.898-10.93,10.934-10.93h68.31c6.036,0,10.934,4.894,10.934,10.93L281.424,182.255L281.424,182.255z"/>
	<path style="fill:#F6A2A3;" d="M379.421,311.728c0,19.641-15.921,35.562-35.562,35.562H121.601
		c-19.641,0-35.562-15.921-35.562-35.562V182.824c0-19.641,15.921-35.562,35.562-35.562h222.255
		c19.641,0,35.562,15.921,35.562,35.562v128.905H379.421z"/>
</g>
<rect x="216.657" y="137.743" transform="matrix(-0.7071 0.7071 -0.7071 -0.7071 511.0766 136.1526)" style="opacity:0.15;enable-background:new    ;" width="21.365" height="72.362"/>
<g>
	<path style="fill:#F9F29A;" d="M214.745,190.408c0,6.035-4.898,10.93-10.934,10.93h-68.314c-6.035,0-10.934-4.894-10.934-10.93
		v-39.626c0-6.036,4.898-10.93,10.934-10.93h68.314c6.036,0,10.934,4.894,10.934,10.93V190.408z"/>
	<path style="fill:#F9F29A;" d="M379.421,356.181H86.039V191.714c0-19.641,15.921-35.562,35.562-35.562h122.046h100.213
		c19.641,0,35.562,15.921,35.562,35.562V356.181z"/>
</g>
<g>
	<path style="fill:#886A29;" d="M271.137,267.167l10.129-0.045l0.011,3.779l-10.133,0.045L271.137,267.167z"/>
	<path style="fill:#886A29;" d="M280.825,270.947l10.133-0.045l0.004,3.779l-10.129,0.041L280.825,270.947z"/>
	<path style="fill:#886A29;" d="M271.137,274.572l10.129-0.049l0.011,3.779l-10.133,0.045L271.137,274.572z"/>
	<path style="fill:#886A29;" d="M280.825,278.348l10.133-0.045l0.004,3.779l-10.129,0.045L280.825,278.348z"/>
	<path style="fill:#886A29;" d="M271.137,281.813l10.129-0.045l0.011,3.779l-10.133,0.041L271.137,281.813z"/>
	<path style="fill:#886A29;" d="M280.825,285.592l10.133-0.041l0.004,3.779l-10.129,0.045L280.825,285.592z"/>
	<path style="fill:#886A29;" d="M271.137,288.9l10.129-0.045l0.011,3.779l-10.133,0.041L271.137,288.9z"/>
	<path style="fill:#886A29;" d="M280.825,292.679l10.133-0.041l0.004,3.775l-10.129,0.045L280.825,292.679z"/>
	<path style="fill:#886A29;" d="M271.137,296.301l10.129-0.045l0.011,3.783l-10.133,0.041L271.137,296.301z"/>
	<path style="fill:#886A29;" d="M280.825,300.076l10.133-0.041l0.004,3.775l-10.129,0.045L280.825,300.076z"/>
	<path style="fill:#886A29;" d="M271.137,303.541l10.129-0.041l0.011,3.775l-10.133,0.045L271.137,303.541z"/>
	<path style="fill:#886A29;" d="M280.825,307.321l10.133-0.045l0.004,3.783l-10.129,0.041L280.825,307.321z"/>
	<path style="fill:#886A29;" d="M271.137,310.628l10.129-0.041l0.011,3.775l-10.133,0.045L271.137,310.628z"/>
	<path style="fill:#886A29;" d="M280.825,314.407l10.133-0.045l0.004,3.779l-10.129,0.045L280.825,314.407z"/>
	<path style="fill:#886A29;" d="M271.137,318.03l10.129-0.041l0.011,3.775l-10.133,0.045L271.137,318.03z"/>
	<path style="fill:#886A29;" d="M280.825,321.809l10.133-0.045l0.004,3.779l-10.129,0.045L280.825,321.809z"/>
	<path style="fill:#886A29;" d="M271.137,325.274l10.129-0.045l0.011,3.779l-10.133,0.045L271.137,325.274z"/>
	<path style="fill:#886A29;" d="M280.825,329.053l10.133-0.045l0.004,3.779l-10.129,0.041L280.825,329.053z"/>
	<path style="fill:#886A29;" d="M271.137,332.596l10.129-0.041l0.011,3.775l-10.133,0.045L271.137,332.596z"/>
	<path style="fill:#886A29;" d="M280.825,336.372l10.133-0.045l0.004,3.779l-10.129,0.045L280.825,336.372z"/>
	<path style="fill:#886A29;" d="M271.137,339.994l10.129-0.041l0.011,3.775l-10.133,0.045L271.137,339.994z"/>
	<path style="fill:#886A29;" d="M280.825,343.773l10.133-0.045l0.004,3.783l-10.129,0.041L280.825,343.773z"/>
	<path style="fill:#886A29;" d="M271.137,347.238l10.129-0.041l0.011,3.779l-10.133,0.041L271.137,347.238z"/>
	<path style="fill:#886A29;" d="M280.825,351.017l10.133-0.041l0.004,3.775l-10.129,0.041L280.825,351.017z"/>
	<path style="fill:#886A29;" d="M271.137,354.796l10.129-0.041l-0.082,1.403l-10.043,0.06v-1.422H271.137z"/>
</g>
<polygon style="fill:#F6A2A3;" points="285.671,207.924 276.537,207.924 226.782,155.61 335.732,155.61 "/>
<g>
	<path style="fill:#886A29;" d="M265.555,204.219l7.132-7.192l2.675,2.668l-7.124,7.195L265.555,204.219z"/>
	<path style="fill:#886A29;" d="M260.829,198.55l7.124-7.192l2.683,2.664l-7.124,7.192L260.829,198.55z"/>
	<path style="fill:#886A29;" d="M255.796,193.825l7.124-7.188l2.683,2.664l-7.132,7.192L255.796,193.825z"/>
	<path style="fill:#886A29;" d="M250.748,188.788l7.128-7.192l2.683,2.668l-7.132,7.192L250.748,188.788z"/>
	<path style="fill:#886A29;" d="M246.026,183.119l7.128-7.192l2.683,2.668l-7.132,7.192L246.026,183.119z"/>
	<path style="fill:#886A29;" d="M240.99,178.393l7.128-7.188l2.683,2.664l-7.132,7.195L240.99,178.393z"/>
	<path style="fill:#886A29;" d="M235.946,173.357l7.124-7.195l2.679,2.668l-7.121,7.195L235.946,173.357z"/>
	<path style="fill:#886A29;" d="M231.224,167.684l7.128-7.188l2.675,2.664l-7.124,7.192L231.224,167.684z"/>
	<path style="fill:#886A29;" d="M226.191,162.966l6.806-6.746l0.767-0.004l2.234,2.226l-7.128,7.192L226.191,162.966z"/>
	<path style="fill:#886A29;" d="M221.458,158.236l2.118-2.137l5.28,0.049l-4.715,4.756L221.458,158.236z"/>
	<path style="fill:#886A29;" d="M293.079,206.891l-7.132-7.195l2.679-2.668l7.132,7.192L293.079,206.891z"/>
	<path style="fill:#886A29;" d="M297.801,201.215l-7.132-7.192l2.679-2.664l7.128,7.192L297.801,201.215z"/>
	<path style="fill:#886A29;" d="M302.838,196.493l-7.124-7.192l2.672-2.664l7.132,7.188L302.838,196.493z"/>
	<path style="fill:#886A29;" d="M307.878,191.456l-7.128-7.192l2.679-2.668l7.132,7.192L307.878,191.456z"/>
	<path style="fill:#886A29;" d="M312.604,185.787l-7.124-7.192l2.672-2.668l7.128,7.192L312.604,185.787z"/>
	<path style="fill:#886A29;" d="M317.644,181.065l-7.132-7.195l2.675-2.664l7.124,7.188L317.644,181.065z"/>
	<path style="fill:#886A29;" d="M322.688,176.025l-7.136-7.195l2.683-2.668l7.128,7.195L322.688,176.025z"/>
	<path style="fill:#886A29;" d="M327.41,170.352l-7.128-7.192l2.675-2.664l7.128,7.188L327.41,170.352z"/>
	<path style="fill:#886A29;" d="M332.447,165.63l-7.128-7.192l2.241-2.226l0.76,0.004l6.806,6.746L332.447,165.63z"/>
	<path style="fill:#886A29;" d="M337.169,160.908l-4.715-4.756l5.28-0.049l2.114,2.137L337.169,160.908z"/>
</g>
<path style="fill:#504A2A;" d="M290.782,222.928l1.908-14.035l-8.269-7.989h-7.102l-8.277,7.989l1.931,14.065v25.889
	c-0.071,0.692-0.105,1.467-0.105,2.428v10.365c0,0.962,0.034,1.736,0.105,2.428v0.165h0.011c0.329,3.154,1.594,3.674,6.073,3.674
	h7.562c4.471,0,5.744-0.524,6.077-3.674h0.094v-1.56c0.004-0.341,0.019-0.647,0.019-1.029V251.28c0-0.382-0.015-0.692-0.019-1.029
	v-27.323H290.782z M287.339,259.841c0,3.622-0.445,4.097-4.045,4.097h-4.928c-3.592,0-4.045-0.471-4.045-4.097v-6.761
	c0-3.622,0.453-4.097,4.045-4.097h4.928c3.6,0,4.045,0.471,4.045,4.097V259.841z"/>
</svg>